solid Untitled-55058d2e
facet normal 0.0 0.0 -1.0
  outer loop
    vertex 177.79999999999998 0.0 0.0
    vertex 0.0 -76.19999999999999 0.0
    vertex 0.0 0.0 0.0
  endloop
endfacet
facet normal 0.0 0.0 -1.0
  outer loop
    vertex 0.0 -76.19999999999999 0.0
    vertex 177.79999999999998 0.0 0.0
    vertex 142.14047976752883 -36.10723624451364 -2.255973186038318e-14
  endloop
endfacet
facet normal 0.0 0.0 -1.0
  outer loop
    vertex 0.0 -76.19999999999999 0.0
    vertex 142.14047976752883 -36.10723624451364 -2.255973186038318e-14
    vertex 141.69261633358823 -36.690903235192785 -2.255973186038318e-14
  endloop
endfacet
facet normal 0.0 0.0 -1.0
  outer loop
    vertex 0.0 -76.19999999999999 0.0
    vertex 141.69261633358823 -36.690903235192785 -2.255973186038318e-14
    vertex 141.41107760927994 -37.370597841751106 -2.255973186038318e-14
  endloop
endfacet
facet normal 0.0 0.0 -1.0
  outer loop
    vertex 0.0 -76.19999999999999 0.0
    vertex 141.41107760927994 -37.370597841751106 -2.255973186038318e-14
    vertex 141.31504999340083 -38.099999999999994 -2.255973186038318e-14
  endloop
endfacet
facet normal 0.0 0.0 -1.0
  outer loop
    vertex 142.14047976752883 -36.10723624451364 -2.255973186038318e-14
    vertex 177.79999999999998 0.0 0.0
    vertex 142.724146758208 -35.65937281057303 -2.255973186038318e-14
  endloop
endfacet
facet normal 0.0 0.0 -1.0
  outer loop
    vertex 142.724146758208 -35.65937281057303 -2.255973186038318e-14
    vertex 177.79999999999998 0.0 0.0
    vertex 143.4038413647663 -35.377834086264734 -2.255973186038318e-14
  endloop
endfacet
facet normal 0.0 0.0 -1.0
  outer loop
    vertex 143.4038413647663 -35.377834086264734 -2.255973186038318e-14
    vertex 177.79999999999998 0.0 0.0
    vertex 144.13324352301518 -35.28180647038564 -2.255973186038318e-14
  endloop
endfacet
facet normal 0.0 0.0 -1.0
  outer loop
    vertex 144.13324352301518 -35.28180647038564 -2.255973186038318e-14
    vertex 177.79999999999998 0.0 0.0
    vertex 144.86264568126407 -35.377834086264734 -2.255973186038318e-14
  endloop
endfacet
facet normal 0.0 0.0 -1.0
  outer loop
    vertex 144.86264568126407 -35.377834086264734 -2.255973186038318e-14
    vertex 177.79999999999998 0.0 0.0
    vertex 145.54234028782236 -35.659372810573025 -2.255973186038318e-14
  endloop
endfacet
facet normal 0.0 0.0 -1.0
  outer loop
    vertex 145.54234028782236 -35.659372810573025 -2.255973186038318e-14
    vertex 177.79999999999998 0.0 0.0
    vertex 146.12600727850153 -36.10723624451363 -2.255973186038318e-14
  endloop
endfacet
facet normal 0.0 0.0 -1.0
  outer loop
    vertex 146.12600727850153 -36.10723624451363 -2.255973186038318e-14
    vertex 177.79999999999998 0.0 0.0
    vertex 146.5738707124422 -36.69090323519287 -2.255973186038318e-14
  endloop
endfacet
facet normal 0.0 0.0 -1.0
  outer loop
    vertex 146.5738707124422 -36.69090323519287 -2.255973186038318e-14
    vertex 177.79999999999998 0.0 0.0
    vertex 146.85540943675045 -37.370597841751064 -2.255973186038318e-14
  endloop
endfacet
facet normal 0.0 0.0 -1.0
  outer loop
    vertex 146.85540943675045 -37.370597841751064 -2.255973186038318e-14
    vertex 177.79999999999998 0.0 0.0
    vertex 146.95143705262956 -38.099999999999994 -2.255973186038318e-14
  endloop
endfacet
facet normal 0.0 0.0 -1.0
  outer loop
    vertex 0.0 -76.19999999999999 0.0
    vertex 142.14047976752883 -40.09276375548637 -2.255973186038318e-14
    vertex 177.79999999999998 -76.19999999999999 0.0
  endloop
endfacet
facet normal 0.0 0.0 -1.0
  outer loop
    vertex 142.14047976752883 -40.09276375548637 -2.255973186038318e-14
    vertex 0.0 -76.19999999999999 0.0
    vertex 141.6926163335882 -39.509096764807126 -2.255973186038318e-14
  endloop
endfacet
facet normal 0.0 0.0 -1.0
  outer loop
    vertex 141.6926163335882 -39.509096764807126 -2.255973186038318e-14
    vertex 0.0 -76.19999999999999 0.0
    vertex 141.41107760927994 -38.82940215824893 -2.255973186038318e-14
  endloop
endfacet
facet normal 0.0 0.0 -1.0
  outer loop
    vertex 141.41107760927994 -38.82940215824893 -2.255973186038318e-14
    vertex 0.0 -76.19999999999999 0.0
    vertex 141.31504999340083 -38.099999999999994 -2.255973186038318e-14
  endloop
endfacet
facet normal 0.0 0.0 -1.0
  outer loop
    vertex 177.79999999999998 -76.19999999999999 0.0
    vertex 142.14047976752883 -40.09276375548637 -2.255973186038318e-14
    vertex 142.72414675820804 -40.54062718942697 -2.255973186038318e-14
  endloop
endfacet
facet normal 0.0 0.0 -1.0
  outer loop
    vertex 177.79999999999998 -76.19999999999999 0.0
    vertex 142.72414675820804 -40.54062718942697 -2.255973186038318e-14
    vertex 143.4038413647663 -40.82216591373526 -2.255973186038318e-14
  endloop
endfacet
facet normal 0.0 0.0 -1.0
  outer loop
    vertex 177.79999999999998 -76.19999999999999 0.0
    vertex 143.4038413647663 -40.82216591373526 -2.255973186038318e-14
    vertex 144.13324352301518 -40.918193529614356 -2.255973186038318e-14
  endloop
endfacet
facet normal 0.0 0.0 -1.0
  outer loop
    vertex 177.79999999999998 -76.19999999999999 0.0
    vertex 144.13324352301518 -40.918193529614356 -2.255973186038318e-14
    vertex 144.86264568126407 -40.82216591373526 -2.255973186038318e-14
  endloop
endfacet
facet normal 0.0 0.0 -1.0
  outer loop
    vertex 177.79999999999998 -76.19999999999999 0.0
    vertex 144.86264568126407 -40.82216591373526 -2.255973186038318e-14
    vertex 145.54234028782238 -40.540627189426964 -2.255973186038318e-14
  endloop
endfacet
facet normal 0.0 0.0 -1.0
  outer loop
    vertex 177.79999999999998 -76.19999999999999 0.0
    vertex 145.54234028782238 -40.540627189426964 -2.255973186038318e-14
    vertex 146.12600727850156 -40.09276375548635 -2.255973186038318e-14
  endloop
endfacet
facet normal 0.0 0.0 -1.0
  outer loop
    vertex 177.79999999999998 -76.19999999999999 0.0
    vertex 146.12600727850156 -40.09276375548635 -2.255973186038318e-14
    vertex 146.57387071244213 -39.50909676480721 -2.255973186038318e-14
  endloop
endfacet
facet normal 0.0 0.0 -1.0
  outer loop
    vertex 177.79999999999998 -76.19999999999999 0.0
    vertex 146.57387071244213 -39.50909676480721 -2.255973186038318e-14
    vertex 146.85540943675045 -38.82940215824889 -2.255973186038318e-14
  endloop
endfacet
facet normal 0.0 0.0 -1.0
  outer loop
    vertex 177.79999999999998 -76.19999999999999 0.0
    vertex 146.85540943675045 -38.82940215824889 -2.255973186038318e-14
    vertex 146.95143705262956 -38.099999999999994 -2.255973186038318e-14
  endloop
endfacet
facet normal 0.0 0.0 -1.0
  outer loop
    vertex 177.79999999999998 -76.19999999999999 0.0
    vertex 146.95143705262956 -38.099999999999994 -2.255973186038318e-14
    vertex 177.79999999999998 0.0 0.0
  endloop
endfacet
facet normal -1.0 0.0 0.0
  outer loop
    vertex 0.0 0.0 38.157708799999995
    vertex 0.0 -76.19999999999999 0.0
    vertex 0.0 -76.19999999999999 38.157708799999995
  endloop
endfacet
facet normal -1.0 0.0 0.0
  outer loop
    vertex 0.0 -76.19999999999999 0.0
    vertex 0.0 0.0 38.157708799999995
    vertex 0.0 0.0 0.0
  endloop
endfacet
facet normal -5.605997017258142e-06 0.9999999978730769 6.498014276317378e-05
  outer loop
    vertex 0.0 0.0 38.157708799999995
    vertex 177.79999999999998 0.0 0.0
    vertex 0.0 0.0 0.0
  endloop
endfacet
facet normal -5.605997017258142e-06 0.9999999978730769 6.498014276317378e-05
  outer loop
    vertex 177.79999999999998 0.0 0.0
    vertex 0.0 0.0 38.157708799999995
    vertex 38.981041719690744 1.762479051592436e-16 38.15770879999999
  endloop
endfacet
facet normal -5.605997017258142e-06 0.9999999978730769 6.498014276317378e-05
  outer loop
    vertex 38.981041719690744 1.762479051592436e-16 38.15770879999999
    vertex 177.79999999999998 0.0 38.157708799999995
    vertex 177.79999999999998 0.0 0.0
  endloop
endfacet
facet normal -5.605997017258142e-06 0.9999999978730769 6.498014276317378e-05
  outer loop
    vertex 177.79999999999998 0.0 38.157708799999995
    vertex 38.981041719690744 1.762479051592436e-16 38.15770879999999
    vertex 48.09259885924673 -0.010426585183836332 38.1577088
  endloop
endfacet
facet normal -0.0 -1.0 -0.0
  outer loop
    vertex 177.79999999999998 -76.19999999999999 38.157708799999995
    vertex 0.0 -76.19999999999999 0.0
    vertex 177.79999999999998 -76.19999999999999 0.0
  endloop
endfacet
facet normal -0.0 -1.0 -0.0
  outer loop
    vertex 0.0 -76.19999999999999 0.0
    vertex 177.79999999999998 -76.19999999999999 38.157708799999995
    vertex 0.0 -76.19999999999999 38.157708799999995
  endloop
endfacet
facet normal -0.0 -0.0 1.0
  outer loop
    vertex 174.85772761481616 -73.25772761481616 8.263001000000017
    vertex 2.942272385183836 -2.942272385183836 8.263001000000017
    vertex 2.942272385183836 -73.25772761481616 8.263001000000017
  endloop
endfacet
facet normal -0.0 -0.0 1.0
  outer loop
    vertex 2.942272385183836 -2.942272385183836 8.263001000000017
    vertex 174.85772761481616 -73.25772761481616 8.263001000000017
    vertex 141.60445728085887 -40.628786242156345 8.263001000000017
  endloop
endfacet
facet normal -0.0 -0.0 1.0
  outer loop
    vertex 2.942272385183836 -2.942272385183836 8.263001000000017
    vertex 141.60445728085887 -40.628786242156345 8.263001000000017
    vertex 141.0361255420886 -39.8881219 8.263001000000017
  endloop
endfacet
facet normal -0.0 -0.0 1.0
  outer loop
    vertex 2.942272385183836 -2.942272385183836 8.263001000000017
    vertex 141.0361255420886 -39.8881219 8.263001000000017
    vertex 140.67885727548904 -39.02560000536981 8.263001000000017
  endloop
endfacet
facet normal -0.0 -0.0 1.0
  outer loop
    vertex 2.942272385183836 -2.942272385183836 8.263001000000017
    vertex 140.67885727548904 -39.02560000536981 8.263001000000017
    vertex 140.5569997230152 -38.099999999999994 8.263001000000017
  endloop
endfacet
facet normal -0.0 -0.0 1.0
  outer loop
    vertex 141.60445728085887 -40.628786242156345 8.263001000000017
    vertex 174.85772761481616 -73.25772761481616 8.263001000000017
    vertex 142.3451216230152 -41.19711798092659 8.263001000000017
  endloop
endfacet
facet normal -0.0 -0.0 1.0
  outer loop
    vertex 142.3451216230152 -41.19711798092659 8.263001000000017
    vertex 174.85772761481616 -73.25772761481616 8.263001000000017
    vertex 143.20764351764538 -41.55438624752616 8.263001000000017
  endloop
endfacet
facet normal -0.0 -0.0 1.0
  outer loop
    vertex 143.20764351764538 -41.55438624752616 8.263001000000017
    vertex 174.85772761481616 -73.25772761481616 8.263001000000017
    vertex 144.13324352301518 -41.6762438 8.263001000000017
  endloop
endfacet
facet normal -0.0 -0.0 1.0
  outer loop
    vertex 144.13324352301518 -41.6762438 8.263001000000017
    vertex 174.85772761481616 -73.25772761481616 8.263001000000017
    vertex 145.05884352838498 -41.55438624752616 8.263001000000017
  endloop
endfacet
facet normal -0.0 -0.0 1.0
  outer loop
    vertex 145.05884352838498 -41.55438624752616 8.263001000000017
    vertex 174.85772761481616 -73.25772761481616 8.263001000000017
    vertex 145.9213654230152 -41.19711798092659 8.263001000000017
  endloop
endfacet
facet normal -0.0 -0.0 1.0
  outer loop
    vertex 145.9213654230152 -41.19711798092659 8.263001000000017
    vertex 174.85772761481616 -73.25772761481616 8.263001000000017
    vertex 146.66202976517152 -40.628786242156345 8.263001000000017
  endloop
endfacet
facet normal -0.0 -0.0 1.0
  outer loop
    vertex 146.66202976517152 -40.628786242156345 8.263001000000017
    vertex 174.85772761481616 -73.25772761481616 8.263001000000017
    vertex 147.2303615039418 -39.8881219 8.263001000000017
  endloop
endfacet
facet normal -0.0 -0.0 1.0
  outer loop
    vertex 147.2303615039418 -39.8881219 8.263001000000017
    vertex 174.85772761481616 -73.25772761481616 8.263001000000017
    vertex 147.58762977054135 -39.02560000536981 8.263001000000017
  endloop
endfacet
facet normal -0.0 -0.0 1.0
  outer loop
    vertex 147.58762977054135 -39.02560000536981 8.263001000000017
    vertex 174.85772761481616 -73.25772761481616 8.263001000000017
    vertex 147.7094873230152 -38.099999999999994 8.263001000000017
  endloop
endfacet
facet normal -0.0 -0.0 1.0
  outer loop
    vertex 2.942272385183836 -2.942272385183836 8.263001000000017
    vertex 141.60445728085887 -35.57121375784365 8.263001000000017
    vertex 174.85772761481616 -2.942272385183836 8.263001000000017
  endloop
endfacet
facet normal -0.0 -0.0 1.0
  outer loop
    vertex 141.60445728085887 -35.57121375784365 8.263001000000017
    vertex 2.942272385183836 -2.942272385183836 8.263001000000017
    vertex 141.03612554208857 -36.311878099999994 8.263001000000017
  endloop
endfacet
facet normal -0.0 -0.0 1.0
  outer loop
    vertex 141.03612554208857 -36.311878099999994 8.263001000000017
    vertex 2.942272385183836 -2.942272385183836 8.263001000000017
    vertex 140.67885727548904 -37.174399994630186 8.263001000000017
  endloop
endfacet
facet normal -0.0 -0.0 1.0
  outer loop
    vertex 140.67885727548904 -37.174399994630186 8.263001000000017
    vertex 2.942272385183836 -2.942272385183836 8.263001000000017
    vertex 140.5569997230152 -38.099999999999994 8.263001000000017
  endloop
endfacet
facet normal -0.0 -0.0 1.0
  outer loop
    vertex 174.85772761481616 -2.942272385183836 8.263001000000017
    vertex 141.60445728085887 -35.57121375784365 8.263001000000017
    vertex 142.3451216230152 -35.002882019073404 8.263001000000017
  endloop
endfacet
facet normal -0.0 -0.0 1.0
  outer loop
    vertex 174.85772761481616 -2.942272385183836 8.263001000000017
    vertex 142.3451216230152 -35.002882019073404 8.263001000000017
    vertex 143.20764351764538 -34.645613752473835 8.263001000000017
  endloop
endfacet
facet normal -0.0 -0.0 1.0
  outer loop
    vertex 174.85772761481616 -2.942272385183836 8.263001000000017
    vertex 143.20764351764538 -34.645613752473835 8.263001000000017
    vertex 144.13324352301518 -34.523756199999994 8.263001000000017
  endloop
endfacet
facet normal -0.0 -0.0 1.0
  outer loop
    vertex 174.85772761481616 -2.942272385183836 8.263001000000017
    vertex 144.13324352301518 -34.523756199999994 8.263001000000017
    vertex 145.05884352838498 -34.645613752473835 8.263001000000017
  endloop
endfacet
facet normal -0.0 -0.0 1.0
  outer loop
    vertex 174.85772761481616 -2.942272385183836 8.263001000000017
    vertex 145.05884352838498 -34.645613752473835 8.263001000000017
    vertex 145.92136542301517 -35.002882019073404 8.263001000000017
  endloop
endfacet
facet normal -0.0 -0.0 1.0
  outer loop
    vertex 174.85772761481616 -2.942272385183836 8.263001000000017
    vertex 145.92136542301517 -35.002882019073404 8.263001000000017
    vertex 146.66202976517152 -35.57121375784365 8.263001000000017
  endloop
endfacet
facet normal -0.0 -0.0 1.0
  outer loop
    vertex 174.85772761481616 -2.942272385183836 8.263001000000017
    vertex 146.66202976517152 -35.57121375784365 8.263001000000017
    vertex 147.23036150394177 -36.311878099999994 8.263001000000017
  endloop
endfacet
facet normal -0.0 -0.0 1.0
  outer loop
    vertex 174.85772761481616 -2.942272385183836 8.263001000000017
    vertex 147.23036150394177 -36.311878099999994 8.263001000000017
    vertex 147.58762977054135 -37.174399994630186 8.263001000000017
  endloop
endfacet
facet normal -0.0 -0.0 1.0
  outer loop
    vertex 174.85772761481616 -2.942272385183836 8.263001000000017
    vertex 147.58762977054135 -37.174399994630186 8.263001000000017
    vertex 147.7094873230152 -38.099999999999994 8.263001000000017
  endloop
endfacet
facet normal -0.0 -0.0 1.0
  outer loop
    vertex 174.85772761481616 -2.942272385183836 8.263001000000017
    vertex 147.7094873230152 -38.099999999999994 8.263001000000017
    vertex 174.85772761481616 -73.25772761481616 8.263001000000017
  endloop
endfacet
facet normal 0.0 -1.0 0.0
  outer loop
    vertex 174.85772761481616 -2.942272385183836 38.157708799999995
    vertex 2.942272385183836 -2.942272385183836 8.263001000000017
    vertex 174.85772761481616 -2.942272385183836 8.263001000000017
  endloop
endfacet
facet normal 0.0 -1.0 0.0
  outer loop
    vertex 2.942272385183836 -2.942272385183836 8.263001000000017
    vertex 174.85772761481616 -2.942272385183836 38.157708799999995
    vertex 43.53682028946874 -2.942272385183836 33.601930230222
  endloop
endfacet
facet normal 0.0 -1.0 0.0
  outer loop
    vertex 43.53682028946874 -2.942272385183836 33.601930230222
    vertex 174.85772761481616 -2.942272385183836 38.157708799999995
    vertex 44.71594254859721 -2.942272385183836 33.75716462059716
  endloop
endfacet
facet normal 0.0 -1.0 0.0
  outer loop
    vertex 44.71594254859721 -2.942272385183836 33.75716462059716
    vertex 174.85772761481616 -2.942272385183836 38.157708799999995
    vertex 45.81470957435774 -2.942272385183836 34.212288824555515
  endloop
endfacet
facet normal 0.0 -1.0 0.0
  outer loop
    vertex 45.81470957435774 -2.942272385183836 34.212288824555515
    vertex 174.85772761481616 -2.942272385183836 38.157708799999995
    vertex 46.75824220974311 -2.942272385183836 34.93628687972563
  endloop
endfacet
facet normal 0.0 -1.0 0.0
  outer loop
    vertex 46.75824220974311 -2.942272385183836 34.93628687972563
    vertex 174.85772761481616 -2.942272385183836 38.157708799999995
    vertex 47.482240264913216 -2.942272385183836 35.879819515111
  endloop
endfacet
facet normal 0.0 -1.0 0.0
  outer loop
    vertex 47.482240264913216 -2.942272385183836 35.879819515111
    vertex 174.85772761481616 -2.942272385183836 38.157708799999995
    vertex 47.93736446887158 -2.942272385183836 36.97858654087153
  endloop
endfacet
facet normal 0.0 -1.0 0.0
  outer loop
    vertex 47.93736446887158 -2.942272385183836 36.97858654087153
    vertex 174.85772761481616 -2.942272385183836 38.157708799999995
    vertex 48.09259885924673 -2.942272385183836 38.1577088
  endloop
endfacet
facet normal 0.0 -1.0 0.0
  outer loop
    vertex 43.53682028946874 -2.942272385183836 33.601930230222
    vertex 2.942272385183836 -2.942272385183836 38.157708799999995
    vertex 2.942272385183836 -2.942272385183836 8.263001000000017
  endloop
endfacet
facet normal 0.0 -1.0 0.0
  outer loop
    vertex 2.942272385183836 -2.942272385183836 38.157708799999995
    vertex 43.53682028946874 -2.942272385183836 33.601930230222
    vertex 42.35769803034027 -2.942272385183836 33.75716462059715
  endloop
endfacet
facet normal 0.0 -1.0 0.0
  outer loop
    vertex 2.942272385183836 -2.942272385183836 38.157708799999995
    vertex 42.35769803034027 -2.942272385183836 33.75716462059715
    vertex 41.25893100457974 -2.942272385183836 34.212288824555515
  endloop
endfacet
facet normal 0.0 -1.0 0.0
  outer loop
    vertex 2.942272385183836 -2.942272385183836 38.157708799999995
    vertex 41.25893100457974 -2.942272385183836 34.212288824555515
    vertex 40.31539836919437 -2.942272385183836 34.93628687972562
  endloop
endfacet
facet normal 0.0 -1.0 0.0
  outer loop
    vertex 2.942272385183836 -2.942272385183836 38.157708799999995
    vertex 40.31539836919437 -2.942272385183836 34.93628687972562
    vertex 39.59140031402426 -2.942272385183836 35.87981951511099
  endloop
endfacet
facet normal 0.0 -1.0 0.0
  outer loop
    vertex 2.942272385183836 -2.942272385183836 38.157708799999995
    vertex 39.59140031402426 -2.942272385183836 35.87981951511099
    vertex 39.1362761100659 -2.942272385183836 36.97858654087152
  endloop
endfacet
facet normal 0.0 -1.0 0.0
  outer loop
    vertex 2.942272385183836 -2.942272385183836 38.157708799999995
    vertex 39.1362761100659 -2.942272385183836 36.97858654087152
    vertex 38.981041719690744 -2.942272385183836 38.15770879999999
  endloop
endfacet
facet normal -0.0 1.0 -0.0
  outer loop
    vertex 2.942272385183836 -73.25772761481616 38.157708799999995
    vertex 174.85772761481616 -73.25772761481616 8.263001000000017
    vertex 2.942272385183836 -73.25772761481616 8.263001000000017
  endloop
endfacet
facet normal -0.0 1.0 -0.0
  outer loop
    vertex 174.85772761481616 -73.25772761481616 8.263001000000017
    vertex 2.942272385183836 -73.25772761481616 38.157708799999995
    vertex 174.85772761481616 -73.25772761481616 38.157708799999995
  endloop
endfacet
facet normal -1.0 0.0 -0.0
  outer loop
    vertex 174.85772761481616 -2.942272385183836 38.157708799999995
    vertex 174.85772761481616 -73.25772761481616 8.263001000000017
    vertex 174.85772761481616 -73.25772761481616 38.157708799999995
  endloop
endfacet
facet normal -1.0 0.0 -0.0
  outer loop
    vertex 174.85772761481616 -73.25772761481616 8.263001000000017
    vertex 174.85772761481616 -2.942272385183836 38.157708799999995
    vertex 174.85772761481616 -2.942272385183836 8.263001000000017
  endloop
endfacet
facet normal -1.2379734613332255e-15 2.798358925055547e-32 1.0
  outer loop
    vertex 48.09259885924673 -2.942272385183836 38.1577088
    vertex 38.981041719690744 1.762479051592436e-16 38.15770879999999
    vertex 38.981041719690744 -2.942272385183836 38.15770879999999
  endloop
endfacet
facet normal -1.2379734613332255e-15 2.798358925055547e-32 1.0
  outer loop
    vertex 38.981041719690744 1.762479051592436e-16 38.15770879999999
    vertex 48.09259885924673 -2.942272385183836 38.1577088
    vertex 48.09259885924673 -0.010426585183836332 38.1577088
  endloop
endfacet
facet normal 1.0 -0.0 -0.0
  outer loop
    vertex 177.79999999999998 0.0 0.0
    vertex 177.79999999999998 -76.19999999999999 38.157708799999995
    vertex 177.79999999999998 -76.19999999999999 0.0
  endloop
endfacet
facet normal 1.0 -0.0 -0.0
  outer loop
    vertex 177.79999999999998 -76.19999999999999 38.157708799999995
    vertex 177.79999999999998 0.0 0.0
    vertex 177.79999999999998 0.0 38.157708799999995
  endloop
endfacet
facet normal 0.0 0.0 1.0
  outer loop
    vertex 141.60445728085887 -40.628786242156345 28.036342200000014
    vertex 141.31504999340083 -38.099999999999994 28.036342200000014
    vertex 141.0361255420886 -39.8881219 28.036342200000014
  endloop
endfacet
facet normal 0.0 0.0 1.0
  outer loop
    vertex 141.31504999340083 -38.099999999999994 28.036342200000014
    vertex 141.60445728085887 -40.628786242156345 28.036342200000014
    vertex 141.41107760927994 -38.82940215824893 28.036342200000014
  endloop
endfacet
facet normal 0.0 0.0 1.0
  outer loop
    vertex 141.41107760927994 -38.82940215824893 28.036342200000014
    vertex 141.60445728085887 -40.628786242156345 28.036342200000014
    vertex 141.6926163335882 -39.509096764807126 28.036342200000014
  endloop
endfacet
facet normal 0.0 0.0 1.0
  outer loop
    vertex 141.6926163335882 -39.509096764807126 28.036342200000014
    vertex 141.60445728085887 -40.628786242156345 28.036342200000014
    vertex 142.3451216230152 -41.19711798092659 28.036342200000014
  endloop
endfacet
facet normal 0.0 0.0 1.0
  outer loop
    vertex 141.6926163335882 -39.509096764807126 28.036342200000014
    vertex 142.3451216230152 -41.19711798092659 28.036342200000014
    vertex 142.14047976752883 -40.09276375548637 28.036342200000014
  endloop
endfacet
facet normal 0.0 0.0 1.0
  outer loop
    vertex 142.14047976752883 -40.09276375548637 28.036342200000014
    vertex 142.3451216230152 -41.19711798092659 28.036342200000014
    vertex 142.72414675820804 -40.54062718942697 28.036342200000014
  endloop
endfacet
facet normal 0.0 0.0 1.0
  outer loop
    vertex 142.72414675820804 -40.54062718942697 28.036342200000014
    vertex 142.3451216230152 -41.19711798092659 28.036342200000014
    vertex 143.20764351764538 -41.55438624752616 28.036342200000014
  endloop
endfacet
facet normal 0.0 0.0 1.0
  outer loop
    vertex 142.72414675820804 -40.54062718942697 28.036342200000014
    vertex 143.20764351764538 -41.55438624752616 28.036342200000014
    vertex 143.4038413647663 -40.82216591373526 28.036342200000014
  endloop
endfacet
facet normal 0.0 0.0 1.0
  outer loop
    vertex 143.4038413647663 -40.82216591373526 28.036342200000014
    vertex 143.20764351764538 -41.55438624752616 28.036342200000014
    vertex 144.13324352301518 -41.6762438 28.036342200000014
  endloop
endfacet
facet normal 0.0 0.0 1.0
  outer loop
    vertex 143.4038413647663 -40.82216591373526 28.036342200000014
    vertex 144.13324352301518 -41.6762438 28.036342200000014
    vertex 144.13324352301518 -40.918193529614356 28.036342200000014
  endloop
endfacet
facet normal 0.0 0.0 1.0
  outer loop
    vertex 144.13324352301518 -40.918193529614356 28.036342200000014
    vertex 144.13324352301518 -41.6762438 28.036342200000014
    vertex 145.05884352838498 -41.55438624752616 28.036342200000014
  endloop
endfacet
facet normal 0.0 0.0 1.0
  outer loop
    vertex 144.13324352301518 -40.918193529614356 28.036342200000014
    vertex 145.05884352838498 -41.55438624752616 28.036342200000014
    vertex 144.86264568126407 -40.82216591373526 28.036342200000014
  endloop
endfacet
facet normal 0.0 0.0 1.0
  outer loop
    vertex 144.86264568126407 -40.82216591373526 28.036342200000014
    vertex 145.05884352838498 -41.55438624752616 28.036342200000014
    vertex 145.54234028782238 -40.540627189426964 28.036342200000014
  endloop
endfacet
facet normal 0.0 0.0 1.0
  outer loop
    vertex 145.54234028782238 -40.540627189426964 28.036342200000014
    vertex 145.05884352838498 -41.55438624752616 28.036342200000014
    vertex 145.9213654230152 -41.19711798092659 28.036342200000014
  endloop
endfacet
facet normal 0.0 0.0 1.0
  outer loop
    vertex 145.54234028782238 -40.540627189426964 28.036342200000014
    vertex 145.9213654230152 -41.19711798092659 28.036342200000014
    vertex 146.12600727850156 -40.09276375548635 28.036342200000014
  endloop
endfacet
facet normal 0.0 0.0 1.0
  outer loop
    vertex 146.12600727850156 -40.09276375548635 28.036342200000014
    vertex 145.9213654230152 -41.19711798092659 28.036342200000014
    vertex 146.66202976517152 -40.628786242156345 28.036342200000014
  endloop
endfacet
facet normal 0.0 0.0 1.0
  outer loop
    vertex 146.12600727850156 -40.09276375548635 28.036342200000014
    vertex 146.66202976517152 -40.628786242156345 28.036342200000014
    vertex 146.57387071244213 -39.50909676480721 28.036342200000014
  endloop
endfacet
facet normal 0.0 0.0 1.0
  outer loop
    vertex 146.57387071244213 -39.50909676480721 28.036342200000014
    vertex 146.66202976517152 -40.628786242156345 28.036342200000014
    vertex 146.85540943675045 -38.82940215824889 28.036342200000014
  endloop
endfacet
facet normal 0.0 0.0 1.0
  outer loop
    vertex 146.85540943675045 -38.82940215824889 28.036342200000014
    vertex 146.66202976517152 -40.628786242156345 28.036342200000014
    vertex 147.2303615039418 -39.8881219 28.036342200000014
  endloop
endfacet
facet normal 0.0 0.0 1.0
  outer loop
    vertex 146.85540943675045 -38.82940215824889 28.036342200000014
    vertex 147.2303615039418 -39.8881219 28.036342200000014
    vertex 146.95143705262956 -38.099999999999994 28.036342200000014
  endloop
endfacet
facet normal 0.0 0.0 1.0
  outer loop
    vertex 146.95143705262956 -38.099999999999994 28.036342200000014
    vertex 147.2303615039418 -39.8881219 28.036342200000014
    vertex 147.23036150394177 -36.311878099999994 28.036342200000014
  endloop
endfacet
facet normal 0.0 0.0 1.0
  outer loop
    vertex 147.23036150394177 -36.311878099999994 28.036342200000014
    vertex 147.2303615039418 -39.8881219 28.036342200000014
    vertex 147.58762977054135 -37.174399994630186 28.036342200000014
  endloop
endfacet
facet normal 0.0 0.0 1.0
  outer loop
    vertex 147.58762977054135 -37.174399994630186 28.036342200000014
    vertex 147.2303615039418 -39.8881219 28.036342200000014
    vertex 147.58762977054135 -39.02560000536981 28.036342200000014
  endloop
endfacet
facet normal 0.0 0.0 1.0
  outer loop
    vertex 147.58762977054135 -37.174399994630186 28.036342200000014
    vertex 147.58762977054135 -39.02560000536981 28.036342200000014
    vertex 147.7094873230152 -38.099999999999994 28.036342200000014
  endloop
endfacet
facet normal 0.0 0.0 1.0
  outer loop
    vertex 140.67885727548904 -39.02560000536981 28.036342200000014
    vertex 140.67885727548904 -37.174399994630186 28.036342200000014
    vertex 140.5569997230152 -38.099999999999994 28.036342200000014
  endloop
endfacet
facet normal 0.0 0.0 1.0
  outer loop
    vertex 140.67885727548904 -37.174399994630186 28.036342200000014
    vertex 140.67885727548904 -39.02560000536981 28.036342200000014
    vertex 141.0361255420886 -39.8881219 28.036342200000014
  endloop
endfacet
facet normal 0.0 0.0 1.0
  outer loop
    vertex 140.67885727548904 -37.174399994630186 28.036342200000014
    vertex 141.0361255420886 -39.8881219 28.036342200000014
    vertex 141.03612554208857 -36.311878099999994 28.036342200000014
  endloop
endfacet
facet normal 0.0 0.0 1.0
  outer loop
    vertex 141.03612554208857 -36.311878099999994 28.036342200000014
    vertex 141.0361255420886 -39.8881219 28.036342200000014
    vertex 141.60445728085887 -35.57121375784365 28.036342200000014
  endloop
endfacet
facet normal 0.0 0.0 1.0
  outer loop
    vertex 141.60445728085887 -35.57121375784365 28.036342200000014
    vertex 141.0361255420886 -39.8881219 28.036342200000014
    vertex 141.31504999340083 -38.099999999999994 28.036342200000014
  endloop
endfacet
facet normal 0.0 0.0 1.0
  outer loop
    vertex 141.60445728085887 -35.57121375784365 28.036342200000014
    vertex 141.31504999340083 -38.099999999999994 28.036342200000014
    vertex 141.41107760927994 -37.370597841751106 28.036342200000014
  endloop
endfacet
facet normal 0.0 0.0 1.0
  outer loop
    vertex 141.60445728085887 -35.57121375784365 28.036342200000014
    vertex 141.41107760927994 -37.370597841751106 28.036342200000014
    vertex 141.69261633358823 -36.690903235192785 28.036342200000014
  endloop
endfacet
facet normal 0.0 0.0 1.0
  outer loop
    vertex 141.60445728085887 -35.57121375784365 28.036342200000014
    vertex 141.69261633358823 -36.690903235192785 28.036342200000014
    vertex 142.3451216230152 -35.002882019073404 28.036342200000014
  endloop
endfacet
facet normal 0.0 0.0 1.0
  outer loop
    vertex 142.3451216230152 -35.002882019073404 28.036342200000014
    vertex 141.69261633358823 -36.690903235192785 28.036342200000014
    vertex 142.14047976752883 -36.10723624451364 28.036342200000014
  endloop
endfacet
facet normal 0.0 0.0 1.0
  outer loop
    vertex 142.3451216230152 -35.002882019073404 28.036342200000014
    vertex 142.14047976752883 -36.10723624451364 28.036342200000014
    vertex 142.724146758208 -35.65937281057303 28.036342200000014
  endloop
endfacet
facet normal 0.0 0.0 1.0
  outer loop
    vertex 142.3451216230152 -35.002882019073404 28.036342200000014
    vertex 142.724146758208 -35.65937281057303 28.036342200000014
    vertex 143.20764351764538 -34.645613752473835 28.036342200000014
  endloop
endfacet
facet normal 0.0 0.0 1.0
  outer loop
    vertex 143.20764351764538 -34.645613752473835 28.036342200000014
    vertex 142.724146758208 -35.65937281057303 28.036342200000014
    vertex 143.4038413647663 -35.377834086264734 28.036342200000014
  endloop
endfacet
facet normal 0.0 0.0 1.0
  outer loop
    vertex 143.20764351764538 -34.645613752473835 28.036342200000014
    vertex 143.4038413647663 -35.377834086264734 28.036342200000014
    vertex 144.13324352301518 -34.523756199999994 28.036342200000014
  endloop
endfacet
facet normal 0.0 0.0 1.0
  outer loop
    vertex 144.13324352301518 -34.523756199999994 28.036342200000014
    vertex 143.4038413647663 -35.377834086264734 28.036342200000014
    vertex 144.13324352301518 -35.28180647038564 28.036342200000014
  endloop
endfacet
facet normal 0.0 0.0 1.0
  outer loop
    vertex 144.13324352301518 -34.523756199999994 28.036342200000014
    vertex 144.13324352301518 -35.28180647038564 28.036342200000014
    vertex 144.86264568126407 -35.377834086264734 28.036342200000014
  endloop
endfacet
facet normal 0.0 0.0 1.0
  outer loop
    vertex 144.13324352301518 -34.523756199999994 28.036342200000014
    vertex 144.86264568126407 -35.377834086264734 28.036342200000014
    vertex 145.05884352838498 -34.645613752473835 28.036342200000014
  endloop
endfacet
facet normal 0.0 0.0 1.0
  outer loop
    vertex 145.05884352838498 -34.645613752473835 28.036342200000014
    vertex 144.86264568126407 -35.377834086264734 28.036342200000014
    vertex 145.54234028782236 -35.659372810573025 28.036342200000014
  endloop
endfacet
facet normal 0.0 0.0 1.0
  outer loop
    vertex 145.05884352838498 -34.645613752473835 28.036342200000014
    vertex 145.54234028782236 -35.659372810573025 28.036342200000014
    vertex 145.92136542301517 -35.002882019073404 28.036342200000014
  endloop
endfacet
facet normal 0.0 0.0 1.0
  outer loop
    vertex 145.92136542301517 -35.002882019073404 28.036342200000014
    vertex 145.54234028782236 -35.659372810573025 28.036342200000014
    vertex 146.12600727850153 -36.10723624451363 28.036342200000014
  endloop
endfacet
facet normal 0.0 0.0 1.0
  outer loop
    vertex 145.92136542301517 -35.002882019073404 28.036342200000014
    vertex 146.12600727850153 -36.10723624451363 28.036342200000014
    vertex 146.66202976517152 -35.57121375784365 28.036342200000014
  endloop
endfacet
facet normal 0.0 0.0 1.0
  outer loop
    vertex 146.66202976517152 -35.57121375784365 28.036342200000014
    vertex 146.12600727850153 -36.10723624451363 28.036342200000014
    vertex 146.5738707124422 -36.69090323519287 28.036342200000014
  endloop
endfacet
facet normal 0.0 0.0 1.0
  outer loop
    vertex 146.66202976517152 -35.57121375784365 28.036342200000014
    vertex 146.5738707124422 -36.69090323519287 28.036342200000014
    vertex 146.85540943675045 -37.370597841751064 28.036342200000014
  endloop
endfacet
facet normal 0.0 0.0 1.0
  outer loop
    vertex 146.66202976517152 -35.57121375784365 28.036342200000014
    vertex 146.85540943675045 -37.370597841751064 28.036342200000014
    vertex 147.23036150394177 -36.311878099999994 28.036342200000014
  endloop
endfacet
facet normal 0.0 0.0 1.0
  outer loop
    vertex 147.23036150394177 -36.311878099999994 28.036342200000014
    vertex 146.85540943675045 -37.370597841751064 28.036342200000014
    vertex 146.95143705262956 -38.099999999999994 28.036342200000014
  endloop
endfacet
facet normal 0.9914448613738115 -0.13052619222004394 0.0
  outer loop
    vertex 147.7094873230152 -38.099999999999994 8.263001000000017
    vertex 147.58762977054135 -39.02560000536981 28.036342200000014
    vertex 147.58762977054135 -39.02560000536981 8.263001000000017
  endloop
endfacet
facet normal 0.9659258262890698 -0.2588190451025148 0.0
  outer loop
    vertex 147.58762977054135 -39.02560000536981 28.036342200000014
    vertex 147.7094873230152 -38.099999999999994 8.263001000000017
    vertex 147.7094873230152 -38.099999999999994 28.036342200000014
  endloop
endfacet
facet normal 0.965925826289067 0.25881904510252557 0.0
  outer loop
    vertex 147.58762977054135 -37.174399994630186 8.263001000000017
    vertex 147.7094873230152 -38.099999999999994 28.036342200000014
    vertex 147.7094873230152 -38.099999999999994 8.263001000000017
  endloop
endfacet
facet normal 0.9914448613738115 0.13052619222004394 0.0
  outer loop
    vertex 147.7094873230152 -38.099999999999994 28.036342200000014
    vertex 147.58762977054135 -37.174399994630186 8.263001000000017
    vertex 147.58762977054135 -37.174399994630186 28.036342200000014
  endloop
endfacet
facet normal 0.8660254037844345 0.5000000000000072 0.0
  outer loop
    vertex 147.23036150394177 -36.311878099999994 8.263001000000017
    vertex 147.58762977054135 -37.174399994630186 28.036342200000014
    vertex 147.58762977054135 -37.174399994630186 8.263001000000017
  endloop
endfacet
facet normal 0.965925826289067 0.25881904510252557 0.0
  outer loop
    vertex 147.58762977054135 -37.174399994630186 28.036342200000014
    vertex 147.23036150394177 -36.311878099999994 8.263001000000017
    vertex 147.23036150394177 -36.311878099999994 28.036342200000014
  endloop
endfacet
facet normal 0.7071067811865475 0.7071067811865475 0.0
  outer loop
    vertex 146.66202976517152 -35.57121375784365 8.263001000000017
    vertex 147.23036150394177 -36.311878099999994 28.036342200000014
    vertex 147.23036150394177 -36.311878099999994 8.263001000000017
  endloop
endfacet
facet normal 0.8660254037844345 0.5000000000000072 0.0
  outer loop
    vertex 147.23036150394177 -36.311878099999994 28.036342200000014
    vertex 146.66202976517152 -35.57121375784365 8.263001000000017
    vertex 146.66202976517152 -35.57121375784365 28.036342200000014
  endloop
endfacet
facet normal 0.5000000000000009 0.866025403784438 0.0
  outer loop
    vertex 145.92136542301517 -35.002882019073404 28.036342200000014
    vertex 146.66202976517152 -35.57121375784365 8.263001000000017
    vertex 145.92136542301517 -35.002882019073404 8.263001000000017
  endloop
endfacet
facet normal 0.7071067811865475 0.7071067811865475 0.0
  outer loop
    vertex 146.66202976517152 -35.57121375784365 8.263001000000017
    vertex 145.92136542301517 -35.002882019073404 28.036342200000014
    vertex 146.66202976517152 -35.57121375784365 28.036342200000014
  endloop
endfacet
facet normal 0.25881904510252196 0.9659258262890681 0.0
  outer loop
    vertex 145.05884352838498 -34.645613752473835 28.036342200000014
    vertex 145.92136542301517 -35.002882019073404 8.263001000000017
    vertex 145.05884352838498 -34.645613752473835 8.263001000000017
  endloop
endfacet
facet normal 0.5000000000000009 0.866025403784438 0.0
  outer loop
    vertex 145.92136542301517 -35.002882019073404 8.263001000000017
    vertex 145.05884352838498 -34.645613752473835 28.036342200000014
    vertex 145.92136542301517 -35.002882019073404 28.036342200000014
  endloop
endfacet
facet normal 0.0 1.0 0.0
  outer loop
    vertex 144.13324352301518 -34.523756199999994 28.036342200000014
    vertex 145.05884352838498 -34.645613752473835 8.263001000000017
    vertex 144.13324352301518 -34.523756199999994 8.263001000000017
  endloop
endfacet
facet normal 0.25881904510252196 0.9659258262890681 0.0
  outer loop
    vertex 145.05884352838498 -34.645613752473835 8.263001000000017
    vertex 144.13324352301518 -34.523756199999994 28.036342200000014
    vertex 145.05884352838498 -34.645613752473835 28.036342200000014
  endloop
endfacet
facet normal -0.2588190451025174 0.9659258262890691 0.0
  outer loop
    vertex 143.20764351764538 -34.645613752473835 28.036342200000014
    vertex 144.13324352301518 -34.523756199999994 8.263001000000017
    vertex 143.20764351764538 -34.645613752473835 8.263001000000017
  endloop
endfacet
facet normal 0.0 1.0 0.0
  outer loop
    vertex 144.13324352301518 -34.523756199999994 8.263001000000017
    vertex 143.20764351764538 -34.645613752473835 28.036342200000014
    vertex 144.13324352301518 -34.523756199999994 28.036342200000014
  endloop
endfacet
facet normal -0.5000000000000034 0.8660254037844368 0.0
  outer loop
    vertex 142.3451216230152 -35.002882019073404 28.036342200000014
    vertex 143.20764351764538 -34.645613752473835 8.263001000000017
    vertex 142.3451216230152 -35.002882019073404 8.263001000000017
  endloop
endfacet
facet normal -0.2588190451025174 0.9659258262890691 0.0
  outer loop
    vertex 143.20764351764538 -34.645613752473835 8.263001000000017
    vertex 142.3451216230152 -35.002882019073404 28.036342200000014
    vertex 143.20764351764538 -34.645613752473835 28.036342200000014
  endloop
endfacet
facet normal -0.7071067811865459 0.7071067811865491 0.0
  outer loop
    vertex 141.60445728085887 -35.57121375784365 28.036342200000014
    vertex 142.3451216230152 -35.002882019073404 8.263001000000017
    vertex 141.60445728085887 -35.57121375784365 8.263001000000017
  endloop
endfacet
facet normal -0.5000000000000034 0.8660254037844368 0.0
  outer loop
    vertex 142.3451216230152 -35.002882019073404 8.263001000000017
    vertex 141.60445728085887 -35.57121375784365 28.036342200000014
    vertex 142.3451216230152 -35.002882019073404 28.036342200000014
  endloop
endfacet
facet normal -0.7071067811865459 0.7071067811865491 0.0
  outer loop
    vertex 141.60445728085887 -35.57121375784365 28.036342200000014
    vertex 141.03612554208857 -36.311878099999994 8.263001000000017
    vertex 141.03612554208857 -36.311878099999994 28.036342200000014
  endloop
endfacet
facet normal -0.8660254037844353 0.5000000000000058 0.0
  outer loop
    vertex 141.03612554208857 -36.311878099999994 8.263001000000017
    vertex 141.60445728085887 -35.57121375784365 28.036342200000014
    vertex 141.60445728085887 -35.57121375784365 8.263001000000017
  endloop
endfacet
facet normal -0.8660254037844353 0.5000000000000058 0.0
  outer loop
    vertex 141.03612554208857 -36.311878099999994 28.036342200000014
    vertex 140.67885727548904 -37.174399994630186 8.263001000000017
    vertex 140.67885727548904 -37.174399994630186 28.036342200000014
  endloop
endfacet
facet normal -0.9659258262890698 0.2588190451025148 0.0
  outer loop
    vertex 140.67885727548904 -37.174399994630186 8.263001000000017
    vertex 141.03612554208857 -36.311878099999994 28.036342200000014
    vertex 141.03612554208857 -36.311878099999994 8.263001000000017
  endloop
endfacet
facet normal -0.9659258262890698 0.2588190451025148 0.0
  outer loop
    vertex 140.67885727548904 -37.174399994630186 28.036342200000014
    vertex 140.5569997230152 -38.099999999999994 8.263001000000017
    vertex 140.5569997230152 -38.099999999999994 28.036342200000014
  endloop
endfacet
facet normal -0.9914448613738115 0.13052619222004394 0.0
  outer loop
    vertex 140.5569997230152 -38.099999999999994 8.263001000000017
    vertex 140.67885727548904 -37.174399994630186 28.036342200000014
    vertex 140.67885727548904 -37.174399994630186 8.263001000000017
  endloop
endfacet
facet normal -0.9914448613738115 -0.13052619222004394 -0.0
  outer loop
    vertex 140.5569997230152 -38.099999999999994 28.036342200000014
    vertex 140.67885727548904 -39.02560000536981 8.263001000000017
    vertex 140.67885727548904 -39.02560000536981 28.036342200000014
  endloop
endfacet
facet normal -0.965925826289067 -0.25881904510252557 0.0
  outer loop
    vertex 140.67885727548904 -39.02560000536981 8.263001000000017
    vertex 140.5569997230152 -38.099999999999994 28.036342200000014
    vertex 140.5569997230152 -38.099999999999994 8.263001000000017
  endloop
endfacet
facet normal -0.965925826289067 -0.25881904510252557 0.0
  outer loop
    vertex 140.67885727548904 -39.02560000536981 28.036342200000014
    vertex 141.0361255420886 -39.8881219 8.263001000000017
    vertex 141.0361255420886 -39.8881219 28.036342200000014
  endloop
endfacet
facet normal -0.8660254037844345 -0.5000000000000072 0.0
  outer loop
    vertex 141.0361255420886 -39.8881219 8.263001000000017
    vertex 140.67885727548904 -39.02560000536981 28.036342200000014
    vertex 140.67885727548904 -39.02560000536981 8.263001000000017
  endloop
endfacet
facet normal -0.8660254037844345 -0.5000000000000072 0.0
  outer loop
    vertex 141.0361255420886 -39.8881219 28.036342200000014
    vertex 141.60445728085887 -40.628786242156345 8.263001000000017
    vertex 141.60445728085887 -40.628786242156345 28.036342200000014
  endloop
endfacet
facet normal -0.7071067811865475 -0.7071067811865475 0.0
  outer loop
    vertex 141.60445728085887 -40.628786242156345 8.263001000000017
    vertex 141.0361255420886 -39.8881219 28.036342200000014
    vertex 141.0361255420886 -39.8881219 8.263001000000017
  endloop
endfacet
facet normal -0.5000000000000009 -0.866025403784438 0.0
  outer loop
    vertex 142.3451216230152 -41.19711798092659 28.036342200000014
    vertex 141.60445728085887 -40.628786242156345 8.263001000000017
    vertex 142.3451216230152 -41.19711798092659 8.263001000000017
  endloop
endfacet
facet normal -0.7071067811865475 -0.7071067811865475 0.0
  outer loop
    vertex 141.60445728085887 -40.628786242156345 8.263001000000017
    vertex 142.3451216230152 -41.19711798092659 28.036342200000014
    vertex 141.60445728085887 -40.628786242156345 28.036342200000014
  endloop
endfacet
facet normal -0.25881904510252196 -0.9659258262890681 0.0
  outer loop
    vertex 143.20764351764538 -41.55438624752616 28.036342200000014
    vertex 142.3451216230152 -41.19711798092659 8.263001000000017
    vertex 143.20764351764538 -41.55438624752616 8.263001000000017
  endloop
endfacet
facet normal -0.5000000000000009 -0.866025403784438 0.0
  outer loop
    vertex 142.3451216230152 -41.19711798092659 8.263001000000017
    vertex 143.20764351764538 -41.55438624752616 28.036342200000014
    vertex 142.3451216230152 -41.19711798092659 28.036342200000014
  endloop
endfacet
facet normal 0.0 -1.0 0.0
  outer loop
    vertex 144.13324352301518 -41.6762438 28.036342200000014
    vertex 143.20764351764538 -41.55438624752616 8.263001000000017
    vertex 144.13324352301518 -41.6762438 8.263001000000017
  endloop
endfacet
facet normal -0.25881904510252196 -0.9659258262890681 0.0
  outer loop
    vertex 143.20764351764538 -41.55438624752616 8.263001000000017
    vertex 144.13324352301518 -41.6762438 28.036342200000014
    vertex 143.20764351764538 -41.55438624752616 28.036342200000014
  endloop
endfacet
facet normal 0.2588190451025174 -0.9659258262890691 0.0
  outer loop
    vertex 145.05884352838498 -41.55438624752616 28.036342200000014
    vertex 144.13324352301518 -41.6762438 8.263001000000017
    vertex 145.05884352838498 -41.55438624752616 8.263001000000017
  endloop
endfacet
facet normal 0.0 -1.0 0.0
  outer loop
    vertex 144.13324352301518 -41.6762438 8.263001000000017
    vertex 145.05884352838498 -41.55438624752616 28.036342200000014
    vertex 144.13324352301518 -41.6762438 28.036342200000014
  endloop
endfacet
facet normal 0.5000000000000034 -0.8660254037844368 0.0
  outer loop
    vertex 145.9213654230152 -41.19711798092659 28.036342200000014
    vertex 145.05884352838498 -41.55438624752616 8.263001000000017
    vertex 145.9213654230152 -41.19711798092659 8.263001000000017
  endloop
endfacet
facet normal 0.2588190451025174 -0.9659258262890691 0.0
  outer loop
    vertex 145.05884352838498 -41.55438624752616 8.263001000000017
    vertex 145.9213654230152 -41.19711798092659 28.036342200000014
    vertex 145.05884352838498 -41.55438624752616 28.036342200000014
  endloop
endfacet
facet normal 0.7071067811865459 -0.7071067811865491 0.0
  outer loop
    vertex 146.66202976517152 -40.628786242156345 28.036342200000014
    vertex 145.9213654230152 -41.19711798092659 8.263001000000017
    vertex 146.66202976517152 -40.628786242156345 8.263001000000017
  endloop
endfacet
facet normal 0.5000000000000034 -0.8660254037844368 0.0
  outer loop
    vertex 145.9213654230152 -41.19711798092659 8.263001000000017
    vertex 146.66202976517152 -40.628786242156345 28.036342200000014
    vertex 145.9213654230152 -41.19711798092659 28.036342200000014
  endloop
endfacet
facet normal 0.8660254037844353 -0.5000000000000058 0.0
  outer loop
    vertex 147.2303615039418 -39.8881219 8.263001000000017
    vertex 146.66202976517152 -40.628786242156345 28.036342200000014
    vertex 146.66202976517152 -40.628786242156345 8.263001000000017
  endloop
endfacet
facet normal 0.7071067811865459 -0.7071067811865491 0.0
  outer loop
    vertex 146.66202976517152 -40.628786242156345 28.036342200000014
    vertex 147.2303615039418 -39.8881219 8.263001000000017
    vertex 147.2303615039418 -39.8881219 28.036342200000014
  endloop
endfacet
facet normal 0.9659258262890698 -0.2588190451025148 0.0
  outer loop
    vertex 147.58762977054135 -39.02560000536981 8.263001000000017
    vertex 147.2303615039418 -39.8881219 28.036342200000014
    vertex 147.2303615039418 -39.8881219 8.263001000000017
  endloop
endfacet
facet normal 0.8660254037844353 -0.5000000000000058 0.0
  outer loop
    vertex 147.2303615039418 -39.8881219 28.036342200000014
    vertex 147.58762977054135 -39.02560000536981 8.263001000000017
    vertex 147.58762977054135 -39.02560000536981 28.036342200000014
  endloop
endfacet
facet normal -0.500000000000007 0.8660254037844347 0.0
  outer loop
    vertex 145.54234028782238 -40.540627189426964 28.036342200000014
    vertex 146.12600727850156 -40.09276375548635 -2.255973186038318e-14
    vertex 145.54234028782238 -40.540627189426964 -2.255973186038318e-14
  endloop
endfacet
facet normal -0.7071067811865489 0.7071067811865462 0.0
  outer loop
    vertex 146.12600727850156 -40.09276375548635 -2.255973186038318e-14
    vertex 145.54234028782238 -40.540627189426964 28.036342200000014
    vertex 146.12600727850156 -40.09276375548635 28.036342200000014
  endloop
endfacet
facet normal -0.8660254037844342 0.5000000000000077 0.0
  outer loop
    vertex 146.57387071244213 -39.50909676480721 28.036342200000014
    vertex 146.12600727850156 -40.09276375548635 -2.255973186038318e-14
    vertex 146.12600727850156 -40.09276375548635 28.036342200000014
  endloop
endfacet
facet normal -0.7071067811865489 0.7071067811865462 0.0
  outer loop
    vertex 146.12600727850156 -40.09276375548635 -2.255973186038318e-14
    vertex 146.57387071244213 -39.50909676480721 28.036342200000014
    vertex 146.57387071244213 -39.50909676480721 -2.255973186038318e-14
  endloop
endfacet
facet normal -0.9659258262890679 0.25881904510252285 0.0
  outer loop
    vertex 146.85540943675045 -38.82940215824889 28.036342200000014
    vertex 146.57387071244213 -39.50909676480721 -2.255973186038318e-14
    vertex 146.57387071244213 -39.50909676480721 28.036342200000014
  endloop
endfacet
facet normal -0.8660254037844342 0.5000000000000077 0.0
  outer loop
    vertex 146.57387071244213 -39.50909676480721 -2.255973186038318e-14
    vertex 146.85540943675045 -38.82940215824889 28.036342200000014
    vertex 146.85540943675045 -38.82940215824889 -2.255973186038318e-14
  endloop
endfacet
facet normal -0.9914448613738105 0.13052619222005055 -0.0
  outer loop
    vertex 146.95143705262956 -38.099999999999994 28.036342200000014
    vertex 146.85540943675045 -38.82940215824889 -2.255973186038318e-14
    vertex 146.85540943675045 -38.82940215824889 28.036342200000014
  endloop
endfacet
facet normal -0.9659258262890679 0.25881904510252285 0.0
  outer loop
    vertex 146.85540943675045 -38.82940215824889 -2.255973186038318e-14
    vertex 146.95143705262956 -38.099999999999994 28.036342200000014
    vertex 146.95143705262956 -38.099999999999994 -2.255973186038318e-14
  endloop
endfacet
facet normal -0.9659258262890673 -0.25881904510252407 0.0
  outer loop
    vertex 146.85540943675045 -37.370597841751064 28.036342200000014
    vertex 146.95143705262956 -38.099999999999994 -2.255973186038318e-14
    vertex 146.95143705262956 -38.099999999999994 28.036342200000014
  endloop
endfacet
facet normal -0.9914448613738116 -0.13052619222004264 -0.0
  outer loop
    vertex 146.95143705262956 -38.099999999999994 -2.255973186038318e-14
    vertex 146.85540943675045 -37.370597841751064 28.036342200000014
    vertex 146.85540943675045 -37.370597841751064 -2.255973186038318e-14
  endloop
endfacet
facet normal -0.8660254037844345 -0.5000000000000074 0.0
  outer loop
    vertex 146.5738707124422 -36.69090323519287 28.036342200000014
    vertex 146.85540943675045 -37.370597841751064 -2.255973186038318e-14
    vertex 146.85540943675045 -37.370597841751064 28.036342200000014
  endloop
endfacet
facet normal -0.9659258262890673 -0.25881904510252407 0.0
  outer loop
    vertex 146.85540943675045 -37.370597841751064 -2.255973186038318e-14
    vertex 146.5738707124422 -36.69090323519287 28.036342200000014
    vertex 146.5738707124422 -36.69090323519287 -2.255973186038318e-14
  endloop
endfacet
facet normal -0.7071067811865485 -0.7071067811865465 0.0
  outer loop
    vertex 146.12600727850153 -36.10723624451363 28.036342200000014
    vertex 146.5738707124422 -36.69090323519287 -2.255973186038318e-14
    vertex 146.5738707124422 -36.69090323519287 28.036342200000014
  endloop
endfacet
facet normal -0.8660254037844345 -0.5000000000000074 0.0
  outer loop
    vertex 146.5738707124422 -36.69090323519287 -2.255973186038318e-14
    vertex 146.12600727850153 -36.10723624451363 28.036342200000014
    vertex 146.12600727850153 -36.10723624451363 -2.255973186038318e-14
  endloop
endfacet
facet normal -0.7071067811865485 -0.7071067811865465 0.0
  outer loop
    vertex 146.12600727850153 -36.10723624451363 28.036342200000014
    vertex 145.54234028782236 -35.659372810573025 -2.255973186038318e-14
    vertex 146.12600727850153 -36.10723624451363 -2.255973186038318e-14
  endloop
endfacet
facet normal -0.5000000000000036 -0.8660254037844365 0.0
  outer loop
    vertex 145.54234028782236 -35.659372810573025 -2.255973186038318e-14
    vertex 146.12600727850153 -36.10723624451363 28.036342200000014
    vertex 145.54234028782236 -35.659372810573025 28.036342200000014
  endloop
endfacet
facet normal -0.5000000000000036 -0.8660254037844365 0.0
  outer loop
    vertex 145.54234028782236 -35.659372810573025 28.036342200000014
    vertex 144.86264568126407 -35.377834086264734 -2.255973186038318e-14
    vertex 145.54234028782236 -35.659372810573025 -2.255973186038318e-14
  endloop
endfacet
facet normal -0.2588190451025192 -0.9659258262890688 0.0
  outer loop
    vertex 144.86264568126407 -35.377834086264734 -2.255973186038318e-14
    vertex 145.54234028782236 -35.659372810573025 28.036342200000014
    vertex 144.86264568126407 -35.377834086264734 28.036342200000014
  endloop
endfacet
facet normal -0.2588190451025192 -0.9659258262890688 0.0
  outer loop
    vertex 144.86264568126407 -35.377834086264734 28.036342200000014
    vertex 144.13324352301518 -35.28180647038564 -2.255973186038318e-14
    vertex 144.86264568126407 -35.377834086264734 -2.255973186038318e-14
  endloop
endfacet
facet normal 0.0 -1.0 0.0
  outer loop
    vertex 144.13324352301518 -35.28180647038564 -2.255973186038318e-14
    vertex 144.86264568126407 -35.377834086264734 28.036342200000014
    vertex 144.13324352301518 -35.28180647038564 28.036342200000014
  endloop
endfacet
facet normal 0.0 -1.0 0.0
  outer loop
    vertex 144.13324352301518 -35.28180647038564 28.036342200000014
    vertex 143.4038413647663 -35.377834086264734 -2.255973186038318e-14
    vertex 144.13324352301518 -35.28180647038564 -2.255973186038318e-14
  endloop
endfacet
facet normal 0.25881904510251696 -0.9659258262890694 0.0
  outer loop
    vertex 143.4038413647663 -35.377834086264734 -2.255973186038318e-14
    vertex 144.13324352301518 -35.28180647038564 28.036342200000014
    vertex 143.4038413647663 -35.377834086264734 28.036342200000014
  endloop
endfacet
facet normal 0.25881904510251696 -0.9659258262890694 0.0
  outer loop
    vertex 143.4038413647663 -35.377834086264734 28.036342200000014
    vertex 142.724146758208 -35.65937281057303 -2.255973186038318e-14
    vertex 143.4038413647663 -35.377834086264734 -2.255973186038318e-14
  endloop
endfacet
facet normal 0.500000000000007 -0.8660254037844347 0.0
  outer loop
    vertex 142.724146758208 -35.65937281057303 -2.255973186038318e-14
    vertex 143.4038413647663 -35.377834086264734 28.036342200000014
    vertex 142.724146758208 -35.65937281057303 28.036342200000014
  endloop
endfacet
facet normal 0.500000000000007 -0.8660254037844347 0.0
  outer loop
    vertex 142.724146758208 -35.65937281057303 28.036342200000014
    vertex 142.14047976752883 -36.10723624451364 -2.255973186038318e-14
    vertex 142.724146758208 -35.65937281057303 -2.255973186038318e-14
  endloop
endfacet
facet normal 0.7071067811865489 -0.7071067811865462 0.0
  outer loop
    vertex 142.14047976752883 -36.10723624451364 -2.255973186038318e-14
    vertex 142.724146758208 -35.65937281057303 28.036342200000014
    vertex 142.14047976752883 -36.10723624451364 28.036342200000014
  endloop
endfacet
facet normal 0.7071067811865489 -0.7071067811865462 0.0
  outer loop
    vertex 142.14047976752883 -36.10723624451364 -2.255973186038318e-14
    vertex 141.69261633358823 -36.690903235192785 28.036342200000014
    vertex 141.69261633358823 -36.690903235192785 -2.255973186038318e-14
  endloop
endfacet
facet normal 0.8660254037844342 -0.5000000000000077 0.0
  outer loop
    vertex 141.69261633358823 -36.690903235192785 28.036342200000014
    vertex 142.14047976752883 -36.10723624451364 -2.255973186038318e-14
    vertex 142.14047976752883 -36.10723624451364 28.036342200000014
  endloop
endfacet
facet normal 0.8660254037844342 -0.5000000000000077 0.0
  outer loop
    vertex 141.69261633358823 -36.690903235192785 -2.255973186038318e-14
    vertex 141.41107760927994 -37.370597841751106 28.036342200000014
    vertex 141.41107760927994 -37.370597841751106 -2.255973186038318e-14
  endloop
endfacet
facet normal 0.9659258262890679 -0.25881904510252285 0.0
  outer loop
    vertex 141.41107760927994 -37.370597841751106 28.036342200000014
    vertex 141.69261633358823 -36.690903235192785 -2.255973186038318e-14
    vertex 141.69261633358823 -36.690903235192785 28.036342200000014
  endloop
endfacet
facet normal 0.9659258262890679 -0.25881904510252285 0.0
  outer loop
    vertex 141.41107760927994 -37.370597841751106 -2.255973186038318e-14
    vertex 141.31504999340083 -38.099999999999994 28.036342200000014
    vertex 141.31504999340083 -38.099999999999994 -2.255973186038318e-14
  endloop
endfacet
facet normal 0.9914448613738105 -0.13052619222005055 -0.0
  outer loop
    vertex 141.31504999340083 -38.099999999999994 28.036342200000014
    vertex 141.41107760927994 -37.370597841751106 -2.255973186038318e-14
    vertex 141.41107760927994 -37.370597841751106 28.036342200000014
  endloop
endfacet
facet normal 0.9914448613738116 0.13052619222004264 0.0
  outer loop
    vertex 141.31504999340083 -38.099999999999994 -2.255973186038318e-14
    vertex 141.41107760927994 -38.82940215824893 28.036342200000014
    vertex 141.41107760927994 -38.82940215824893 -2.255973186038318e-14
  endloop
endfacet
facet normal 0.9659258262890673 0.25881904510252407 0.0
  outer loop
    vertex 141.41107760927994 -38.82940215824893 28.036342200000014
    vertex 141.31504999340083 -38.099999999999994 -2.255973186038318e-14
    vertex 141.31504999340083 -38.099999999999994 28.036342200000014
  endloop
endfacet
facet normal 0.9659258262890673 0.25881904510252407 0.0
  outer loop
    vertex 141.41107760927994 -38.82940215824893 -2.255973186038318e-14
    vertex 141.6926163335882 -39.509096764807126 28.036342200000014
    vertex 141.6926163335882 -39.509096764807126 -2.255973186038318e-14
  endloop
endfacet
facet normal 0.8660254037844345 0.5000000000000074 0.0
  outer loop
    vertex 141.6926163335882 -39.509096764807126 28.036342200000014
    vertex 141.41107760927994 -38.82940215824893 -2.255973186038318e-14
    vertex 141.41107760927994 -38.82940215824893 28.036342200000014
  endloop
endfacet
facet normal 0.8660254037844345 0.5000000000000074 0.0
  outer loop
    vertex 141.6926163335882 -39.509096764807126 -2.255973186038318e-14
    vertex 142.14047976752883 -40.09276375548637 28.036342200000014
    vertex 142.14047976752883 -40.09276375548637 -2.255973186038318e-14
  endloop
endfacet
facet normal 0.7071067811865485 0.7071067811865465 0.0
  outer loop
    vertex 142.14047976752883 -40.09276375548637 28.036342200000014
    vertex 141.6926163335882 -39.509096764807126 -2.255973186038318e-14
    vertex 141.6926163335882 -39.509096764807126 28.036342200000014
  endloop
endfacet
facet normal 0.7071067811865485 0.7071067811865465 0.0
  outer loop
    vertex 142.14047976752883 -40.09276375548637 28.036342200000014
    vertex 142.72414675820804 -40.54062718942697 -2.255973186038318e-14
    vertex 142.14047976752883 -40.09276375548637 -2.255973186038318e-14
  endloop
endfacet
facet normal 0.5000000000000036 0.8660254037844365 0.0
  outer loop
    vertex 142.72414675820804 -40.54062718942697 -2.255973186038318e-14
    vertex 142.14047976752883 -40.09276375548637 28.036342200000014
    vertex 142.72414675820804 -40.54062718942697 28.036342200000014
  endloop
endfacet
facet normal 0.5000000000000036 0.8660254037844365 0.0
  outer loop
    vertex 142.72414675820804 -40.54062718942697 28.036342200000014
    vertex 143.4038413647663 -40.82216591373526 -2.255973186038318e-14
    vertex 142.72414675820804 -40.54062718942697 -2.255973186038318e-14
  endloop
endfacet
facet normal 0.2588190451025192 0.9659258262890688 0.0
  outer loop
    vertex 143.4038413647663 -40.82216591373526 -2.255973186038318e-14
    vertex 142.72414675820804 -40.54062718942697 28.036342200000014
    vertex 143.4038413647663 -40.82216591373526 28.036342200000014
  endloop
endfacet
facet normal 0.2588190451025192 0.9659258262890688 0.0
  outer loop
    vertex 143.4038413647663 -40.82216591373526 28.036342200000014
    vertex 144.13324352301518 -40.918193529614356 -2.255973186038318e-14
    vertex 143.4038413647663 -40.82216591373526 -2.255973186038318e-14
  endloop
endfacet
facet normal 0.0 1.0 0.0
  outer loop
    vertex 144.13324352301518 -40.918193529614356 -2.255973186038318e-14
    vertex 143.4038413647663 -40.82216591373526 28.036342200000014
    vertex 144.13324352301518 -40.918193529614356 28.036342200000014
  endloop
endfacet
facet normal 0.0 1.0 0.0
  outer loop
    vertex 144.13324352301518 -40.918193529614356 28.036342200000014
    vertex 144.86264568126407 -40.82216591373526 -2.255973186038318e-14
    vertex 144.13324352301518 -40.918193529614356 -2.255973186038318e-14
  endloop
endfacet
facet normal -0.25881904510251696 0.9659258262890694 0.0
  outer loop
    vertex 144.86264568126407 -40.82216591373526 -2.255973186038318e-14
    vertex 144.13324352301518 -40.918193529614356 28.036342200000014
    vertex 144.86264568126407 -40.82216591373526 28.036342200000014
  endloop
endfacet
facet normal -0.25881904510251696 0.9659258262890694 0.0
  outer loop
    vertex 144.86264568126407 -40.82216591373526 28.036342200000014
    vertex 145.54234028782238 -40.540627189426964 -2.255973186038318e-14
    vertex 144.86264568126407 -40.82216591373526 -2.255973186038318e-14
  endloop
endfacet
facet normal -0.500000000000007 0.8660254037844347 0.0
  outer loop
    vertex 145.54234028782238 -40.540627189426964 -2.255973186038318e-14
    vertex 144.86264568126407 -40.82216591373526 28.036342200000014
    vertex 145.54234028782238 -40.540627189426964 28.036342200000014
  endloop
endfacet
facet normal 0.0 -1.0 0.0
  outer loop
    vertex 48.09259885924673 -2.942272385183836 38.1577088
    vertex 47.82167722917996 -2.942272385183836 38.395300692884184
    vertex 39.25196334975751 -2.942272385183836 38.39530069288417
  endloop
endfacet
facet normal 0.0 -1.0 0.0
  outer loop
    vertex 47.82167722917996 -2.942272385183836 38.395300692884184
    vertex 48.09259885924673 -2.942272385183836 38.1577088
    vertex 47.93736446887157 -2.942272385183836 39.33683105912847
  endloop
endfacet
facet normal 0.0 -1.0 0.0
  outer loop
    vertex 47.82167722917996 -2.942272385183836 38.395300692884184
    vertex 47.93736446887157 -2.942272385183836 39.33683105912847
    vertex 47.705888010225415 -2.942272385183836 39.27480712896741
  endloop
endfacet
facet normal 0.0 -1.0 0.0
  outer loop
    vertex 47.705888010225415 -2.942272385183836 39.27480712896741
    vertex 47.93736446887157 -2.942272385183836 39.33683105912847
    vertex 47.27470414970674 -2.942272385183836 40.31577705290798
  endloop
endfacet
facet normal 0.0 -1.0 0.0
  outer loop
    vertex 47.27470414970674 -2.942272385183836 40.31577705290798
    vertex 47.93736446887157 -2.942272385183836 39.33683105912847
    vertex 47.482240264913216 -2.942272385183836 40.435598084888994
  endloop
endfacet
facet normal 0.0 -1.0 0.0
  outer loop
    vertex 47.27470414970674 -2.942272385183836 40.31577705290798
    vertex 47.482240264913216 -2.942272385183836 40.435598084888994
    vertex 46.588789681258 -2.942272385183836 41.209678191789266
  endloop
endfacet
facet normal 0.0 -1.0 0.0
  outer loop
    vertex 46.588789681258 -2.942272385183836 41.209678191789266
    vertex 47.482240264913216 -2.942272385183836 40.435598084888994
    vertex 46.7582422097431 -2.942272385183836 41.37913072027437
  endloop
endfacet
facet normal 0.0 -1.0 0.0
  outer loop
    vertex 46.588789681258 -2.942272385183836 41.209678191789266
    vertex 46.7582422097431 -2.942272385183836 41.37913072027437
    vertex 45.69488854237672 -2.942272385183836 41.895592660238
  endloop
endfacet
facet normal 0.0 -1.0 0.0
  outer loop
    vertex 45.69488854237672 -2.942272385183836 41.895592660238
    vertex 46.7582422097431 -2.942272385183836 41.37913072027437
    vertex 45.81470957435773 -2.942272385183836 42.103128775444475
  endloop
endfacet
facet normal 0.0 -1.0 0.0
  outer loop
    vertex 45.69488854237672 -2.942272385183836 41.895592660238
    vertex 45.81470957435773 -2.942272385183836 42.103128775444475
    vertex 44.65391861843613 -2.942272385183836 42.326776520756674
  endloop
endfacet
facet normal 0.0 -1.0 0.0
  outer loop
    vertex 44.65391861843613 -2.942272385183836 42.326776520756674
    vertex 45.81470957435773 -2.942272385183836 42.103128775444475
    vertex 44.7159425485972 -2.942272385183836 42.55825297940283
  endloop
endfacet
facet normal 0.0 -1.0 0.0
  outer loop
    vertex 44.65391861843613 -2.942272385183836 42.326776520756674
    vertex 44.7159425485972 -2.942272385183836 42.55825297940283
    vertex 43.53682028946873 -2.942272385183836 42.47384530581594
  endloop
endfacet
facet normal 0.0 -1.0 0.0
  outer loop
    vertex 38.981041719690744 -2.942272385183836 38.15770879999999
    vertex 39.25196334975751 -2.942272385183836 38.39530069288417
    vertex 39.1362761100659 -2.942272385183836 39.33683105912846
  endloop
endfacet
facet normal 0.0 -1.0 0.0
  outer loop
    vertex 39.25196334975751 -2.942272385183836 38.39530069288417
    vertex 38.981041719690744 -2.942272385183836 38.15770879999999
    vertex 48.09259885924673 -2.942272385183836 38.1577088
  endloop
endfacet
facet normal 0.0 -1.0 0.0
  outer loop
    vertex 39.1362761100659 -2.942272385183836 39.33683105912846
    vertex 39.25196334975751 -2.942272385183836 38.39530069288417
    vertex 39.367752568712056 -2.942272385183836 39.27480712896739
  endloop
endfacet
facet normal 0.0 -1.0 0.0
  outer loop
    vertex 39.1362761100659 -2.942272385183836 39.33683105912846
    vertex 39.367752568712056 -2.942272385183836 39.27480712896739
    vertex 39.79893642923073 -2.942272385183836 40.315777052907976
  endloop
endfacet
facet normal 0.0 -1.0 0.0
  outer loop
    vertex 39.1362761100659 -2.942272385183836 39.33683105912846
    vertex 39.79893642923073 -2.942272385183836 40.315777052907976
    vertex 39.591400314024256 -2.942272385183836 40.43559808488899
  endloop
endfacet
facet normal 0.0 -1.0 0.0
  outer loop
    vertex 39.591400314024256 -2.942272385183836 40.43559808488899
    vertex 39.79893642923073 -2.942272385183836 40.315777052907976
    vertex 40.484850897679465 -2.942272385183836 41.20967819178926
  endloop
endfacet
facet normal 0.0 -1.0 0.0
  outer loop
    vertex 39.591400314024256 -2.942272385183836 40.43559808488899
    vertex 40.484850897679465 -2.942272385183836 41.20967819178926
    vertex 40.31539836919436 -2.942272385183836 41.37913072027436
  endloop
endfacet
facet normal 0.0 -1.0 0.0
  outer loop
    vertex 40.31539836919436 -2.942272385183836 41.37913072027436
    vertex 40.484850897679465 -2.942272385183836 41.20967819178926
    vertex 41.37875203656075 -2.942272385183836 41.895592660237995
  endloop
endfacet
facet normal 0.0 -1.0 0.0
  outer loop
    vertex 40.31539836919436 -2.942272385183836 41.37913072027436
    vertex 41.37875203656075 -2.942272385183836 41.895592660237995
    vertex 41.258931004579736 -2.942272385183836 42.10312877544447
  endloop
endfacet
facet normal 0.0 -1.0 0.0
  outer loop
    vertex 41.258931004579736 -2.942272385183836 42.10312877544447
    vertex 41.37875203656075 -2.942272385183836 41.895592660237995
    vertex 42.41972196050133 -2.942272385183836 42.326776520756674
  endloop
endfacet
facet normal 0.0 -1.0 0.0
  outer loop
    vertex 41.258931004579736 -2.942272385183836 42.10312877544447
    vertex 42.41972196050133 -2.942272385183836 42.326776520756674
    vertex 42.357698030340266 -2.942272385183836 42.55825297940283
  endloop
endfacet
facet normal 0.0 -1.0 0.0
  outer loop
    vertex 42.357698030340266 -2.942272385183836 42.55825297940283
    vertex 42.41972196050133 -2.942272385183836 42.326776520756674
    vertex 43.53682028946873 -2.942272385183836 42.47384530581594
  endloop
endfacet
facet normal 0.0 -1.0 0.0
  outer loop
    vertex 42.357698030340266 -2.942272385183836 42.55825297940283
    vertex 43.53682028946873 -2.942272385183836 42.47384530581594
    vertex 44.7159425485972 -2.942272385183836 42.55825297940283
  endloop
endfacet
facet normal 0.0 -1.0 0.0
  outer loop
    vertex 42.357698030340266 -2.942272385183836 42.55825297940283
    vertex 44.7159425485972 -2.942272385183836 42.55825297940283
    vertex 43.53682028946873 -2.942272385183836 42.71348736977799
  endloop
endfacet
facet normal 0.0 -1.0 0.0
  outer loop
    vertex 44.71594254859721 -2.942272385183836 33.75716462059716
    vertex 42.35769803034027 -2.942272385183836 33.75716462059715
    vertex 43.53682028946874 -2.942272385183836 33.601930230222
  endloop
endfacet
facet normal 0.0 -1.0 0.0
  outer loop
    vertex 42.35769803034027 -2.942272385183836 33.75716462059715
    vertex 44.71594254859721 -2.942272385183836 33.75716462059716
    vertex 41.25893100457974 -2.942272385183836 34.212288824555515
  endloop
endfacet
facet normal 0.0 -1.0 0.0
  outer loop
    vertex 41.25893100457974 -2.942272385183836 34.212288824555515
    vertex 44.71594254859721 -2.942272385183836 33.75716462059716
    vertex 45.81470957435774 -2.942272385183836 34.212288824555515
  endloop
endfacet
facet normal 0.0 -1.0 0.0
  outer loop
    vertex 41.25893100457974 -2.942272385183836 34.212288824555515
    vertex 45.81470957435774 -2.942272385183836 34.212288824555515
    vertex 40.31539836919437 -2.942272385183836 34.93628687972562
  endloop
endfacet
facet normal 0.0 -1.0 0.0
  outer loop
    vertex 40.31539836919437 -2.942272385183836 34.93628687972562
    vertex 45.81470957435774 -2.942272385183836 34.212288824555515
    vertex 46.75824220974311 -2.942272385183836 34.93628687972563
  endloop
endfacet
facet normal 0.0 -1.0 0.0
  outer loop
    vertex 40.31539836919437 -2.942272385183836 34.93628687972562
    vertex 46.75824220974311 -2.942272385183836 34.93628687972563
    vertex 39.59140031402426 -2.942272385183836 35.87981951511099
  endloop
endfacet
facet normal 0.0 -1.0 0.0
  outer loop
    vertex 39.59140031402426 -2.942272385183836 35.87981951511099
    vertex 46.75824220974311 -2.942272385183836 34.93628687972563
    vertex 47.482240264913216 -2.942272385183836 35.879819515111
  endloop
endfacet
facet normal 0.0 -1.0 0.0
  outer loop
    vertex 39.59140031402426 -2.942272385183836 35.87981951511099
    vertex 47.482240264913216 -2.942272385183836 35.879819515111
    vertex 39.1362761100659 -2.942272385183836 36.97858654087152
  endloop
endfacet
facet normal 0.0 -1.0 0.0
  outer loop
    vertex 39.1362761100659 -2.942272385183836 36.97858654087152
    vertex 47.482240264913216 -2.942272385183836 35.879819515111
    vertex 47.93736446887158 -2.942272385183836 36.97858654087153
  endloop
endfacet
facet normal 0.0 -1.0 0.0
  outer loop
    vertex 39.1362761100659 -2.942272385183836 36.97858654087152
    vertex 47.93736446887158 -2.942272385183836 36.97858654087153
    vertex 38.981041719690744 -2.942272385183836 38.15770879999999
  endloop
endfacet
facet normal 0.0 -1.0 0.0
  outer loop
    vertex 38.981041719690744 -2.942272385183836 38.15770879999999
    vertex 47.93736446887158 -2.942272385183836 36.97858654087153
    vertex 48.09259885924673 -2.942272385183836 38.1577088
  endloop
endfacet
facet normal -0.966020582762901 2.230998847577097e-19 0.25846514983344504
  outer loop
    vertex 39.1362761100659 -0.010426585183836332 39.33683105912846
    vertex 38.981041719690744 -2.942272385183836 38.15770879999999
    vertex 39.1362761100659 -2.942272385183836 39.33683105912846
  endloop
endfacet
facet normal -0.9914448613738105 4.411548565580878e-19 0.13052619222005063
  outer loop
    vertex 38.981041719690744 -2.942272385183836 38.15770879999999
    vertex 39.1362761100659 -0.010426585183836332 39.33683105912846
    vertex 38.981041719690744 1.762479051592436e-16 38.15770879999999
  endloop
endfacet
facet normal 0.99144486137381 -0.0 0.1305261922200547
  outer loop
    vertex 48.09259885924673 -0.010426585183836332 38.1577088
    vertex 47.93736446887157 -2.942272385183836 39.33683105912847
    vertex 48.09259885924673 -2.942272385183836 38.1577088
  endloop
endfacet
facet normal 0.9659258262890679 0.0 0.2588190451025225
  outer loop
    vertex 47.93736446887157 -2.942272385183836 39.33683105912847
    vertex 48.09259885924673 -0.010426585183836332 38.1577088
    vertex 47.93736446887157 -0.010426585183836332 39.33683105912847
  endloop
endfacet
facet normal 0.9659258262890679 0.0 0.2588190451025225
  outer loop
    vertex 47.93736446887157 -0.010426585183836332 39.33683105912847
    vertex 47.482240264913216 -2.942272385183836 40.435598084888994
    vertex 47.93736446887157 -2.942272385183836 39.33683105912847
  endloop
endfacet
facet normal 0.8660254037844384 0.0 0.5000000000000006
  outer loop
    vertex 47.482240264913216 -2.942272385183836 40.435598084888994
    vertex 47.93736446887157 -0.010426585183836332 39.33683105912847
    vertex 47.482240264913216 -0.010426585183836332 40.435598084888994
  endloop
endfacet
facet normal 0.8660254037844384 0.0 0.5000000000000006
  outer loop
    vertex 47.482240264913216 -0.010426585183836332 40.435598084888994
    vertex 46.7582422097431 -2.942272385183836 41.37913072027437
    vertex 47.482240264913216 -2.942272385183836 40.435598084888994
  endloop
endfacet
facet normal 0.7071067811865466 0.0 0.7071067811865486
  outer loop
    vertex 46.7582422097431 -2.942272385183836 41.37913072027437
    vertex 47.482240264913216 -0.010426585183836332 40.435598084888994
    vertex 46.7582422097431 -0.010426585183836332 41.37913072027437
  endloop
endfacet
facet normal 0.7071067811865466 0.0 0.7071067811865486
  outer loop
    vertex 46.7582422097431 -2.942272385183836 41.37913072027437
    vertex 45.81470957435773 -0.010426585183836332 42.103128775444475
    vertex 45.81470957435773 -2.942272385183836 42.103128775444475
  endloop
endfacet
facet normal 0.4999999999999985 0.0 0.8660254037844397
  outer loop
    vertex 45.81470957435773 -0.010426585183836332 42.103128775444475
    vertex 46.7582422097431 -2.942272385183836 41.37913072027437
    vertex 46.7582422097431 -0.010426585183836332 41.37913072027437
  endloop
endfacet
facet normal 0.4999999999999985 0.0 0.8660254037844397
  outer loop
    vertex 45.81470957435773 -2.942272385183836 42.103128775444475
    vertex 44.7159425485972 -0.010426585183836332 42.55825297940283
    vertex 44.7159425485972 -2.942272385183836 42.55825297940283
  endloop
endfacet
facet normal 0.25881904510251963 0.0 0.9659258262890685
  outer loop
    vertex 44.7159425485972 -0.010426585183836332 42.55825297940283
    vertex 45.81470957435773 -2.942272385183836 42.103128775444475
    vertex 45.81470957435773 -0.010426585183836332 42.103128775444475
  endloop
endfacet
facet normal 0.25881904510251963 0.0 0.9659258262890685
  outer loop
    vertex 44.7159425485972 -2.942272385183836 42.55825297940283
    vertex 43.53682028946873 -0.010426585183836332 42.71348736977799
    vertex 43.53682028946873 -2.942272385183836 42.71348736977799
  endloop
endfacet
facet normal 0.0 0.0 1.0
  outer loop
    vertex 43.53682028946873 -0.010426585183836332 42.71348736977799
    vertex 44.7159425485972 -2.942272385183836 42.55825297940283
    vertex 44.7159425485972 -0.010426585183836332 42.55825297940283
  endloop
endfacet
facet normal 0.0 0.0 1.0
  outer loop
    vertex 43.53682028946873 -2.942272385183836 42.71348736977799
    vertex 42.357698030340266 -0.010426585183836332 42.55825297940283
    vertex 42.357698030340266 -2.942272385183836 42.55825297940283
  endloop
endfacet
facet normal -0.25881904510252185 0.0 0.9659258262890681
  outer loop
    vertex 42.357698030340266 -0.010426585183836332 42.55825297940283
    vertex 43.53682028946873 -2.942272385183836 42.71348736977799
    vertex 43.53682028946873 -0.010426585183836332 42.71348736977799
  endloop
endfacet
facet normal -0.25881904510252185 0.0 0.9659258262890681
  outer loop
    vertex 42.357698030340266 -2.942272385183836 42.55825297940283
    vertex 41.258931004579736 -0.010426585183836332 42.10312877544447
    vertex 41.258931004579736 -2.942272385183836 42.10312877544447
  endloop
endfacet
facet normal -0.5000000000000017 0.0 0.8660254037844376
  outer loop
    vertex 41.258931004579736 -0.010426585183836332 42.10312877544447
    vertex 42.357698030340266 -2.942272385183836 42.55825297940283
    vertex 42.357698030340266 -0.010426585183836332 42.55825297940283
  endloop
endfacet
facet normal -0.5000000000000017 0.0 0.8660254037844376
  outer loop
    vertex 41.258931004579736 -2.942272385183836 42.10312877544447
    vertex 40.31539836919436 -0.010426585183836332 41.37913072027436
    vertex 40.31539836919436 -2.942272385183836 41.37913072027436
  endloop
endfacet
facet normal -0.7071067811865486 0.0 0.7071067811865466
  outer loop
    vertex 40.31539836919436 -0.010426585183836332 41.37913072027436
    vertex 41.258931004579736 -2.942272385183836 42.10312877544447
    vertex 41.258931004579736 -0.010426585183836332 42.10312877544447
  endloop
endfacet
facet normal -0.7071067811865486 0.0 0.7071067811865466
  outer loop
    vertex 40.31539836919436 -0.010426585183836332 41.37913072027436
    vertex 39.591400314024256 -2.942272385183836 40.43559808488899
    vertex 40.31539836919436 -2.942272385183836 41.37913072027436
  endloop
endfacet
facet normal -0.8660254037844397 0.0 0.4999999999999985
  outer loop
    vertex 39.591400314024256 -2.942272385183836 40.43559808488899
    vertex 40.31539836919436 -0.010426585183836332 41.37913072027436
    vertex 39.591400314024256 -0.010426585183836332 40.43559808488899
  endloop
endfacet
facet normal -0.8660254037844397 0.0 0.4999999999999985
  outer loop
    vertex 39.591400314024256 -0.010426585183836332 40.43559808488899
    vertex 39.1362761100659 -2.942272385183836 39.33683105912846
    vertex 39.591400314024256 -2.942272385183836 40.43559808488899
  endloop
endfacet
facet normal -0.9659258262890686 2.2248078221253526e-19 0.2588190451025197
  outer loop
    vertex 39.1362761100659 -2.942272385183836 39.33683105912846
    vertex 39.591400314024256 -0.010426585183836332 40.43559808488899
    vertex 39.1362761100659 -0.010426585183836332 39.33683105912846
  endloop
endfacet
facet normal -1.5719827273386533e-18 -4.817127879536051e-19 1.0
  outer loop
    vertex 0.0 -76.19999999999999 38.157708799999995
    vertex 2.942272385183836 -73.25772761481616 38.157708799999995
    vertex 0.0 0.0 38.157708799999995
  endloop
endfacet
facet normal -1.5719827273386533e-18 -4.817127879536051e-19 1.0
  outer loop
    vertex 2.942272385183836 -73.25772761481616 38.157708799999995
    vertex 0.0 -76.19999999999999 38.157708799999995
    vertex 177.79999999999998 -76.19999999999999 38.157708799999995
  endloop
endfacet
facet normal -1.5719827273386533e-18 -4.817127879536051e-19 1.0
  outer loop
    vertex 2.942272385183836 -73.25772761481616 38.157708799999995
    vertex 177.79999999999998 -76.19999999999999 38.157708799999995
    vertex 174.85772761481616 -73.25772761481616 38.157708799999995
  endloop
endfacet
facet normal -1.5719827273386533e-18 -4.817127879536051e-19 1.0
  outer loop
    vertex 174.85772761481616 -73.25772761481616 38.157708799999995
    vertex 177.79999999999998 -76.19999999999999 38.157708799999995
    vertex 174.85772761481616 -2.942272385183836 38.157708799999995
  endloop
endfacet
facet normal -1.5719827273386533e-18 -4.817127879536051e-19 1.0
  outer loop
    vertex 174.85772761481616 -2.942272385183836 38.157708799999995
    vertex 48.09259885924673 -0.010426585183836332 38.1577088
    vertex 48.09259885924673 -2.942272385183836 38.1577088
  endloop
endfacet
facet normal -1.5719827273386533e-18 -4.817127879536051e-19 1.0
  outer loop
    vertex 48.09259885924673 -0.010426585183836332 38.1577088
    vertex 174.85772761481616 -2.942272385183836 38.157708799999995
    vertex 177.79999999999998 0.0 38.157708799999995
  endloop
endfacet
facet normal -1.5719827273386533e-18 -4.817127879536051e-19 1.0
  outer loop
    vertex 177.79999999999998 0.0 38.157708799999995
    vertex 174.85772761481616 -2.942272385183836 38.157708799999995
    vertex 177.79999999999998 -76.19999999999999 38.157708799999995
  endloop
endfacet
facet normal -1.5719827273386533e-18 -4.817127879536051e-19 1.0
  outer loop
    vertex 0.0 0.0 38.157708799999995
    vertex 2.942272385183836 -2.942272385183836 38.157708799999995
    vertex 38.981041719690744 1.762479051592436e-16 38.15770879999999
  endloop
endfacet
facet normal -1.5719827273386533e-18 -4.817127879536051e-19 1.0
  outer loop
    vertex 2.942272385183836 -2.942272385183836 38.157708799999995
    vertex 0.0 0.0 38.157708799999995
    vertex 2.942272385183836 -73.25772761481616 38.157708799999995
  endloop
endfacet
facet normal -1.5719827273386533e-18 -4.817127879536051e-19 1.0
  outer loop
    vertex 38.981041719690744 1.762479051592436e-16 38.15770879999999
    vertex 2.942272385183836 -2.942272385183836 38.157708799999995
    vertex 38.981041719690744 -2.942272385183836 38.15770879999999
  endloop
endfacet
facet normal 1.0 0.0 0.0
  outer loop
    vertex 2.942272385183836 -2.942272385183836 8.263001000000017
    vertex 2.942272385183836 -73.25772761481616 38.157708799999995
    vertex 2.942272385183836 -73.25772761481616 8.263001000000017
  endloop
endfacet
facet normal 1.0 0.0 0.0
  outer loop
    vertex 2.942272385183836 -73.25772761481616 38.157708799999995
    vertex 2.942272385183836 -2.942272385183836 8.263001000000017
    vertex 2.942272385183836 -2.942272385183836 38.157708799999995
  endloop
endfacet
facet normal 0.9914448613738102 -0.0 -0.13052619222005368
  outer loop
    vertex 39.25196334975751 -0.008474690296353579 38.39530069288417
    vertex 39.367752568712056 -2.942272385183836 39.27480712896739
    vertex 39.25196334975751 -2.942272385183836 38.39530069288417
  endloop
endfacet
facet normal 0.9659258262890689 0.0 -0.25881904510251863
  outer loop
    vertex 39.367752568712056 -2.942272385183836 39.27480712896739
    vertex 39.25196334975751 -0.008474690296353579 38.39530069288417
    vertex 39.367752568712056 -0.008474690296353579 39.27480712896739
  endloop
endfacet
facet normal -1.3162476704475203e-15 -0.0 1.0
  outer loop
    vertex 47.82167722917996 -2.942272385183836 38.395300692884184
    vertex 39.25196334975751 -0.008474690296353579 38.39530069288417
    vertex 39.25196334975751 -2.942272385183836 38.39530069288417
  endloop
endfacet
facet normal -1.3162476704475203e-15 -0.0 1.0
  outer loop
    vertex 39.25196334975751 -0.008474690296353579 38.39530069288417
    vertex 47.82167722917996 -2.942272385183836 38.395300692884184
    vertex 47.82167722917996 -0.008474690296353579 38.395300692884184
  endloop
endfacet
facet normal -0.9659258262890678 0.0 -0.2588190451025227
  outer loop
    vertex 47.705888010225415 -0.008474690296353579 39.27480712896741
    vertex 47.82167722917996 -2.942272385183836 38.395300692884184
    vertex 47.705888010225415 -2.942272385183836 39.27480712896741
  endloop
endfacet
facet normal -0.9914448613738095 -0.0 -0.13052619222005826
  outer loop
    vertex 47.82167722917996 -2.942272385183836 38.395300692884184
    vertex 47.705888010225415 -0.008474690296353579 39.27480712896741
    vertex 47.82167722917996 -0.008474690296353579 38.395300692884184
  endloop
endfacet
facet normal -0.8660254037844383 0.0 -0.5000000000000009
  outer loop
    vertex 47.27470414970674 -0.008474690296353579 40.31577705290798
    vertex 47.705888010225415 -2.942272385183836 39.27480712896741
    vertex 47.27470414970674 -2.942272385183836 40.31577705290798
  endloop
endfacet
facet normal -0.9659258262890678 0.0 -0.2588190451025227
  outer loop
    vertex 47.705888010225415 -2.942272385183836 39.27480712896741
    vertex 47.27470414970674 -0.008474690296353579 40.31577705290798
    vertex 47.705888010225415 -0.008474690296353579 39.27480712896741
  endloop
endfacet
facet normal -0.7071067811865461 0.0 -0.707106781186549
  outer loop
    vertex 46.588789681258 -0.008474690296353579 41.209678191789266
    vertex 47.27470414970674 -2.942272385183836 40.31577705290798
    vertex 46.588789681258 -2.942272385183836 41.209678191789266
  endloop
endfacet
facet normal -0.8660254037844383 0.0 -0.5000000000000009
  outer loop
    vertex 47.27470414970674 -2.942272385183836 40.31577705290798
    vertex 46.588789681258 -0.008474690296353579 41.209678191789266
    vertex 47.27470414970674 -0.008474690296353579 40.31577705290798
  endloop
endfacet
facet normal -0.7071067811865461 0.0 -0.707106781186549
  outer loop
    vertex 46.588789681258 -0.008474690296353579 41.209678191789266
    vertex 45.69488854237672 -2.942272385183836 41.895592660238
    vertex 45.69488854237672 -0.008474690296353579 41.895592660238
  endloop
endfacet
facet normal -0.4999999999999974 0.0 -0.86602540378444
  outer loop
    vertex 45.69488854237672 -2.942272385183836 41.895592660238
    vertex 46.588789681258 -0.008474690296353579 41.209678191789266
    vertex 46.588789681258 -2.942272385183836 41.209678191789266
  endloop
endfacet
facet normal -0.4999999999999974 0.0 -0.86602540378444
  outer loop
    vertex 45.69488854237672 -0.008474690296353579 41.895592660238
    vertex 44.65391861843613 -2.942272385183836 42.326776520756674
    vertex 44.65391861843613 -0.008474690296353579 42.326776520756674
  endloop
endfacet
facet normal -0.2588190451025182 0.0 -0.965925826289069
  outer loop
    vertex 44.65391861843613 -2.942272385183836 42.326776520756674
    vertex 45.69488854237672 -0.008474690296353579 41.895592660238
    vertex 45.69488854237672 -2.942272385183836 41.895592660238
  endloop
endfacet
facet normal -0.2588190451025182 0.0 -0.965925826289069
  outer loop
    vertex 44.65391861843613 -0.008474690296353579 42.326776520756674
    vertex 43.53682028946873 -2.942272385183836 42.47384530581594
    vertex 43.53682028946873 -0.008474690296353579 42.47384530581594
  endloop
endfacet
facet normal 6.594221322778712e-16 0.0 -1.0
  outer loop
    vertex 43.53682028946873 -2.942272385183836 42.47384530581594
    vertex 44.65391861843613 -0.008474690296353579 42.326776520756674
    vertex 44.65391861843613 -2.942272385183836 42.326776520756674
  endloop
endfacet
facet normal 6.594221322778712e-16 0.0 -1.0
  outer loop
    vertex 43.53682028946873 -0.008474690296353579 42.47384530581594
    vertex 42.41972196050133 -2.942272385183836 42.326776520756674
    vertex 42.41972196050133 -0.008474690296353579 42.326776520756674
  endloop
endfacet
facet normal 0.2588190451025233 0.0 -0.9659258262890676
  outer loop
    vertex 42.41972196050133 -2.942272385183836 42.326776520756674
    vertex 43.53682028946873 -0.008474690296353579 42.47384530581594
    vertex 43.53682028946873 -2.942272385183836 42.47384530581594
  endloop
endfacet
facet normal 0.2588190451025233 0.0 -0.9659258262890676
  outer loop
    vertex 42.41972196050133 -0.008474690296353579 42.326776520756674
    vertex 41.37875203656075 -2.942272385183836 41.895592660237995
    vertex 41.37875203656075 -0.008474690296353579 41.895592660237995
  endloop
endfacet
facet normal 0.5000000000000014 0.0 -0.8660254037844377
  outer loop
    vertex 41.37875203656075 -2.942272385183836 41.895592660237995
    vertex 42.41972196050133 -0.008474690296353579 42.326776520756674
    vertex 42.41972196050133 -2.942272385183836 42.326776520756674
  endloop
endfacet
facet normal 0.5000000000000014 0.0 -0.8660254037844377
  outer loop
    vertex 41.37875203656075 -0.008474690296353579 41.895592660237995
    vertex 40.484850897679465 -2.942272385183836 41.20967819178926
    vertex 40.484850897679465 -0.008474690296353579 41.20967819178926
  endloop
endfacet
facet normal 0.7071067811865475 0.0 -0.7071067811865475
  outer loop
    vertex 40.484850897679465 -2.942272385183836 41.20967819178926
    vertex 41.37875203656075 -0.008474690296353579 41.895592660237995
    vertex 41.37875203656075 -2.942272385183836 41.895592660237995
  endloop
endfacet
facet normal 0.86602540378444 0.0 -0.4999999999999974
  outer loop
    vertex 39.79893642923073 -0.008474690296353579 40.315777052907976
    vertex 40.484850897679465 -2.942272385183836 41.20967819178926
    vertex 39.79893642923073 -2.942272385183836 40.315777052907976
  endloop
endfacet
facet normal 0.7071067811865475 0.0 -0.7071067811865475
  outer loop
    vertex 40.484850897679465 -2.942272385183836 41.20967819178926
    vertex 39.79893642923073 -0.008474690296353579 40.315777052907976
    vertex 40.484850897679465 -0.008474690296353579 41.20967819178926
  endloop
endfacet
facet normal 0.9659258262890689 0.0 -0.25881904510251863
  outer loop
    vertex 39.367752568712056 -0.008474690296353579 39.27480712896739
    vertex 39.79893642923073 -2.942272385183836 40.315777052907976
    vertex 39.367752568712056 -2.942272385183836 39.27480712896739
  endloop
endfacet
facet normal 0.86602540378444 0.0 -0.4999999999999974
  outer loop
    vertex 39.79893642923073 -2.942272385183836 40.315777052907976
    vertex 39.367752568712056 -0.008474690296353579 39.27480712896739
    vertex 39.79893642923073 -0.008474690296353579 40.315777052907976
  endloop
endfacet
facet normal 1.0806509043906698e-17 0.9999662559163054 -0.00821504891806104
  outer loop
    vertex 47.82167722917996 -0.008474690296353579 38.395300692884184
    vertex 48.09259885924673 -0.010426585183836332 38.1577088
    vertex 39.25196334975751 -0.008474690296353579 38.39530069288417
  endloop
endfacet
facet normal 0.00019751755503993884 0.9999998943567178 0.00041505827159491794
  outer loop
    vertex 38.981041719690744 1.762479051592436e-16 38.15770879999999
    vertex 39.25196334975751 -0.008474690296353579 38.39530069288417
    vertex 48.09259885924673 -0.010426585183836332 38.1577088
  endloop
endfacet
facet normal 0.00019751755503993884 0.9999998943567178 0.00041505827159491794
  outer loop
    vertex 39.25196334975751 -0.008474690296353579 38.39530069288417
    vertex 38.981041719690744 1.762479051592436e-16 38.15770879999999
    vertex 39.1362761100659 -0.010426585183836332 39.33683105912846
  endloop
endfacet
facet normal 0.00019751755503993884 0.9999998943567178 0.00041505827159491794
  outer loop
    vertex 39.25196334975751 -0.008474690296353579 38.39530069288417
    vertex 39.1362761100659 -0.010426585183836332 39.33683105912846
    vertex 39.367752568712056 -0.008474690296353579 39.27480712896739
  endloop
endfacet
facet normal 0.00019751755503993884 0.9999998943567178 0.00041505827159491794
  outer loop
    vertex 39.367752568712056 -0.008474690296353579 39.27480712896739
    vertex 39.1362761100659 -0.010426585183836332 39.33683105912846
    vertex 39.79893642923073 -0.008474690296353579 40.315777052907976
  endloop
endfacet
facet normal 0.00019751755503993884 0.9999998943567178 0.00041505827159491794
  outer loop
    vertex 39.79893642923073 -0.008474690296353579 40.315777052907976
    vertex 39.1362761100659 -0.010426585183836332 39.33683105912846
    vertex 39.591400314024256 -0.010426585183836332 40.43559808488899
  endloop
endfacet
facet normal 0.00019751755503993884 0.9999998943567178 0.00041505827159491794
  outer loop
    vertex 39.79893642923073 -0.008474690296353579 40.315777052907976
    vertex 39.591400314024256 -0.010426585183836332 40.43559808488899
    vertex 40.484850897679465 -0.008474690296353579 41.20967819178926
  endloop
endfacet
facet normal 0.00019751755503993884 0.9999998943567178 0.00041505827159491794
  outer loop
    vertex 40.484850897679465 -0.008474690296353579 41.20967819178926
    vertex 39.591400314024256 -0.010426585183836332 40.43559808488899
    vertex 40.31539836919436 -0.010426585183836332 41.37913072027436
  endloop
endfacet
facet normal 0.00019751755503993884 0.9999998943567178 0.00041505827159491794
  outer loop
    vertex 40.484850897679465 -0.008474690296353579 41.20967819178926
    vertex 40.31539836919436 -0.010426585183836332 41.37913072027436
    vertex 41.37875203656075 -0.008474690296353579 41.895592660237995
  endloop
endfacet
facet normal 0.00019751755503993884 0.9999998943567178 0.00041505827159491794
  outer loop
    vertex 41.37875203656075 -0.008474690296353579 41.895592660237995
    vertex 40.31539836919436 -0.010426585183836332 41.37913072027436
    vertex 41.258931004579736 -0.010426585183836332 42.10312877544447
  endloop
endfacet
facet normal 0.00019751755503993884 0.9999998943567178 0.00041505827159491794
  outer loop
    vertex 41.37875203656075 -0.008474690296353579 41.895592660237995
    vertex 41.258931004579736 -0.010426585183836332 42.10312877544447
    vertex 42.41972196050133 -0.008474690296353579 42.326776520756674
  endloop
endfacet
facet normal 0.00019751755503993884 0.9999998943567178 0.00041505827159491794
  outer loop
    vertex 42.41972196050133 -0.008474690296353579 42.326776520756674
    vertex 41.258931004579736 -0.010426585183836332 42.10312877544447
    vertex 42.357698030340266 -0.010426585183836332 42.55825297940283
  endloop
endfacet
facet normal 0.00019751755503993884 0.9999998943567178 0.00041505827159491794
  outer loop
    vertex 42.41972196050133 -0.008474690296353579 42.326776520756674
    vertex 42.357698030340266 -0.010426585183836332 42.55825297940283
    vertex 43.53682028946873 -0.008474690296353579 42.47384530581594
  endloop
endfacet
facet normal 0.00019751755503993884 0.9999998943567178 0.00041505827159491794
  outer loop
    vertex 47.82167722917996 -0.008474690296353579 38.395300692884184
    vertex 47.93736446887157 -0.010426585183836332 39.33683105912847
    vertex 48.09259885924673 -0.010426585183836332 38.1577088
  endloop
endfacet
facet normal 0.00019751755503993884 0.9999998943567178 0.00041505827159491794
  outer loop
    vertex 47.93736446887157 -0.010426585183836332 39.33683105912847
    vertex 47.82167722917996 -0.008474690296353579 38.395300692884184
    vertex 47.705888010225415 -0.008474690296353579 39.27480712896741
  endloop
endfacet
facet normal 0.00019751755503993884 0.9999998943567178 0.00041505827159491794
  outer loop
    vertex 47.93736446887157 -0.010426585183836332 39.33683105912847
    vertex 47.705888010225415 -0.008474690296353579 39.27480712896741
    vertex 47.27470414970674 -0.008474690296353579 40.31577705290798
  endloop
endfacet
facet normal 0.00019751755503993884 0.9999998943567178 0.00041505827159491794
  outer loop
    vertex 47.93736446887157 -0.010426585183836332 39.33683105912847
    vertex 47.27470414970674 -0.008474690296353579 40.31577705290798
    vertex 47.482240264913216 -0.010426585183836332 40.435598084888994
  endloop
endfacet
facet normal 0.00019751755503993884 0.9999998943567178 0.00041505827159491794
  outer loop
    vertex 47.482240264913216 -0.010426585183836332 40.435598084888994
    vertex 47.27470414970674 -0.008474690296353579 40.31577705290798
    vertex 46.588789681258 -0.008474690296353579 41.209678191789266
  endloop
endfacet
facet normal 0.00019751755503993884 0.9999998943567178 0.00041505827159491794
  outer loop
    vertex 47.482240264913216 -0.010426585183836332 40.435598084888994
    vertex 46.588789681258 -0.008474690296353579 41.209678191789266
    vertex 46.7582422097431 -0.010426585183836332 41.37913072027437
  endloop
endfacet
facet normal 0.00019751755503993884 0.9999998943567178 0.00041505827159491794
  outer loop
    vertex 46.7582422097431 -0.010426585183836332 41.37913072027437
    vertex 46.588789681258 -0.008474690296353579 41.209678191789266
    vertex 45.69488854237672 -0.008474690296353579 41.895592660238
  endloop
endfacet
facet normal 0.00019751755503993884 0.9999998943567178 0.00041505827159491794
  outer loop
    vertex 46.7582422097431 -0.010426585183836332 41.37913072027437
    vertex 45.69488854237672 -0.008474690296353579 41.895592660238
    vertex 45.81470957435773 -0.010426585183836332 42.103128775444475
  endloop
endfacet
facet normal 0.00019751755503993884 0.9999998943567178 0.00041505827159491794
  outer loop
    vertex 45.81470957435773 -0.010426585183836332 42.103128775444475
    vertex 45.69488854237672 -0.008474690296353579 41.895592660238
    vertex 44.65391861843613 -0.008474690296353579 42.326776520756674
  endloop
endfacet
facet normal 0.00019751755503993884 0.9999998943567178 0.00041505827159491794
  outer loop
    vertex 45.81470957435773 -0.010426585183836332 42.103128775444475
    vertex 44.65391861843613 -0.008474690296353579 42.326776520756674
    vertex 44.7159425485972 -0.010426585183836332 42.55825297940283
  endloop
endfacet
facet normal 0.00019751755503993884 0.9999998943567178 0.00041505827159491794
  outer loop
    vertex 44.7159425485972 -0.010426585183836332 42.55825297940283
    vertex 44.65391861843613 -0.008474690296353579 42.326776520756674
    vertex 43.53682028946873 -0.008474690296353579 42.47384530581594
  endloop
endfacet
facet normal 0.00019751755503993884 0.9999998943567178 0.00041505827159491794
  outer loop
    vertex 44.7159425485972 -0.010426585183836332 42.55825297940283
    vertex 43.53682028946873 -0.008474690296353579 42.47384530581594
    vertex 42.357698030340266 -0.010426585183836332 42.55825297940283
  endloop
endfacet
facet normal 0.00019751755503993884 0.9999998943567178 0.00041505827159491794
  outer loop
    vertex 44.7159425485972 -0.010426585183836332 42.55825297940283
    vertex 42.357698030340266 -0.010426585183836332 42.55825297940283
    vertex 43.53682028946873 -0.010426585183836332 42.71348736977799
  endloop
endfacet
endsolid Untitled-55058d2e
